<?xml version="1.0" encoding="utf-8"?>
<!-- Generator: Adobe Illustrator 16.0.0, SVG Export Plug-In . SVG Version: 6.00 Build 0)  -->
<!DOCTYPE svg PUBLIC "-//W3C//DTD SVG 1.1//EN" "http://www.w3.org/Graphics/SVG/1.1/DTD/svg11.dtd">
<svg version="1.1" id="Layer_1" xmlns="http://www.w3.org/2000/svg" xmlns:xlink="http://www.w3.org/1999/xlink" x="0px" y="0px"
	 width="167.057px" height="98.624px" viewBox="0.955 9.1 167.057 98.624" enable-background="new 0.955 9.1 167.057 98.624"
	 xml:space="preserve">
<rect x="-636.591" y="233.742" width="104.836" height="104.836"/>
<path d="M-526.647-311.748c1.903-6.538-0.604-13.305-5.768-17.092c0.04-0.126,0.084-0.25,0.121-0.378
	c2.43-8.345-2.326-17.065-10.619-19.48c-2.6-0.756-5.238-0.803-7.71-0.255c-1.969-3.007-4.968-5.352-8.677-6.432
	c-6.113-1.779-12.438,0.365-16.316,4.954c-0.063-0.02-0.125-0.04-0.188-0.06c-8.296-2.414-16.987,2.393-19.417,10.737
	c-0.672,2.306-0.793,4.64-0.443,6.861c-3.289,1.971-5.877,5.145-7.037,9.127c-1.922,6.606,0.66,13.448,5.938,17.21
	c-2.047,8.162,2.673,16.535,10.774,18.894c2.098,0.61,4.221,0.757,6.263,0.503c1.966,3.055,4.989,5.439,8.74,6.531
	c6.328,1.842,12.886-0.523,16.721-5.454c0.104,0.034,0.206,0.069,0.313,0.101c8.294,2.415,16.987-2.393,19.415-10.736
	c0.561-1.921,0.733-3.862,0.575-5.741C-530.541-304.414-527.839-307.654-526.647-311.748z"/>
<circle cx="-450.275" cy="-389.122" r="61"/>
<rect x="-973.504" y="330.066" width="114.854" height="128.242"/>
<rect x="-517.527" y="351.521" width="114.854" height="128.242"/>
<path d="M-890.627-227.819h10.9v10.683c0,0.59,0.273,1.098,0.822,1.525c0.548,0.43,1.199,0.644,1.954,0.644h8.226
	c0.754,0,1.405-0.214,1.954-0.644c0.548-0.428,0.823-0.936,0.823-1.525v-10.683h10.9v10.683c0,1.394-0.308,2.705-0.925,3.936
	c-0.617,1.232-1.475,2.33-2.57,3.293c-1.098,0.964-2.401,1.741-3.908,2.33c-1.508,0.59-3.153,0.964-4.936,1.124v25.702h-10.9
	v-25.702c-3.496-0.213-6.444-1.365-8.843-3.454c-2.332-2.034-3.497-4.444-3.497-7.229V-227.819z"/>
<path d="M-855.047-217.136c0-2.998,1.302-5.515,3.908-7.55c2.673-2.089,5.928-3.133,9.769-3.133h8.226
	c3.839,0,7.06,1.044,9.667,3.133c2.673,2.036,4.01,4.553,4.01,7.55v4.258h-10.9v-4.258c0-0.589-0.275-1.098-0.823-1.525
	c-0.55-0.428-1.2-0.643-1.954-0.643h-8.226c-0.755,0-1.406,0.215-1.954,0.643c-0.55,0.429-0.822,0.937-0.822,1.525v2.169h8.226
	v8.514h-8.226v15.02c0,0.591,0.272,1.099,0.822,1.526c0.548,0.429,1.199,0.643,1.954,0.643h8.226c0.754,0,1.404-0.213,1.954-0.643
	c0.548-0.428,0.823-0.937,0.823-1.526v-4.257h10.9v4.257c0,3-1.337,5.542-4.01,7.632c-2.606,2.033-5.828,3.051-9.667,3.051h-8.226
	c-3.771,0-7.028-1.018-9.769-3.051c-2.606-2.142-3.908-4.686-3.908-7.632V-217.136z"/>
<path d="M-819.467-217.136c0-2.998,1.302-5.515,3.908-7.55c2.673-2.089,5.928-3.133,9.769-3.133H-788v8.515h-17.79
	c-0.755,0-1.406,0.215-1.954,0.643c-0.55,0.429-0.822,0.937-0.822,1.525v25.702c0,0.591,0.272,1.099,0.822,1.526
	c0.548,0.429,1.199,0.643,1.954,0.643h5.45v8.514h-5.45c-3.771,0-7.028-1.018-9.769-3.051c-2.606-2.142-3.908-4.686-3.908-7.632
	V-217.136z M-781.111-167.9c-3.84,0-7.095-1.044-9.769-3.132c-2.606-2.036-3.907-4.552-3.907-7.551v-25.702
	c0-0.589-0.275-1.096-0.823-1.526c-0.55-0.428-1.2-0.643-1.954-0.643h-5.45v-8.514h5.45c3.839,0,7.06,1.044,9.666,3.133
	c2.674,2.036,4.011,4.552,4.011,7.55v25.702c0,0.589,0.273,1.097,0.823,1.526c0.547,0.428,1.199,0.643,1.954,0.643L-781.111-167.9
	L-781.111-167.9z"/>
<path d="M-852.449-132.258c-3.84,0-7.095-0.858-9.769-2.574c-2.606-1.673-3.907-3.741-3.907-6.205v-21.12
	c0-0.483-0.275-0.901-0.823-1.253c-0.549-0.353-1.2-0.529-1.954-0.529h-11.002v21.12h-10.901v-29.897
	c0-2.464,1.302-4.531,3.908-6.204c2.673-1.717,5.928-2.574,9.769-2.574h8.227c3.839,0,7.06,0.857,9.666,2.574
	c2.674,1.673,4.011,3.739,4.011,6.204c0,2.023-0.925,3.784-2.776,5.279c1.851,1.541,2.776,3.302,2.776,5.28v21.12
	c0,0.483,0.273,0.902,0.823,1.255c0.547,0.351,1.199,0.528,1.954,0.528v6.996H-852.449z M-863.658-171.463
	c0.548-0.353,0.823-0.771,0.823-1.254s-0.275-0.901-0.823-1.255c-0.55-0.352-1.2-0.527-1.954-0.527h-8.226
	c-0.755,0-1.406,0.176-1.954,0.527c-0.55,0.354-0.822,0.771-0.822,1.255v1.782h11.002
	C-864.858-170.935-864.208-171.11-863.658-171.463z"/>
<path d="M-855.306-132.588v-6.336l0.514-0.33l0.514,0.33v6.336l-0.514,0.33L-855.306-132.588z M-838.339-132.258h-16.453v-6.996
	h16.453V-132.258z M-852.016-142.819v-38.676h10.9v38.676H-852.016z M-838.853-132.588v-6.336l0.514-0.33l0.514,0.33v6.336
	l-0.514,0.33L-838.853-132.588z"/>
<path d="M-838.854-132.588v-6.336l0.514-0.33l0.514,0.33v6.336l-0.514,0.33L-838.854-132.588z M-766.417-135.459
	c2.975,1.209,6.724,2.276,11.243,3.201h-83.166v-6.996h66.224C-771.297-137.935-769.396-136.67-766.417-135.459z M-797.208-132.258
	c-3.84,0-7.095-0.858-9.769-2.574c-2.606-1.673-3.907-3.741-3.907-6.205v-31.68c0-0.483-0.275-0.901-0.823-1.255
	c-0.549-0.352-1.2-0.527-1.954-0.527h-8.227c-0.755,0-1.406,0.176-1.954,0.527c-0.549,0.354-0.822,0.771-0.822,1.255v29.897h-10.901
	v-29.897c0-2.464,1.302-4.531,3.908-6.204c2.673-1.717,5.928-2.574,9.769-2.574h8.227c3.839,0,7.06,0.857,9.666,2.574
	c2.674,1.673,4.011,3.739,4.011,6.204v31.68c0,0.483,0.273,0.902,0.823,1.255c0.547,0.351,1.199,0.528,1.954,0.528L-797.208-132.258
	L-797.208-132.258z M-797.722-132.588v-6.336l0.514-0.33l0.515,0.33v6.336l-0.515,0.33L-797.722-132.588z"/>
<path d="M-797.722-132.588v-6.336l0.514-0.33l0.514,0.33v6.336l-0.514,0.33L-797.722-132.588z M-763.7-135.459
	c1.386,1.209,3.133,2.276,5.238,3.201h-38.747v-6.996h30.854C-765.973-137.935-765.087-136.67-763.7-135.459z M-756.076-132.258
	c-3.839,0-7.095-0.858-9.769-2.574c-2.606-1.673-3.907-3.741-3.907-6.205v-22.902h-13.78v21.12h-10.9v-29.897
	c0-2.464,1.302-4.531,3.908-6.204c2.673-1.716,5.928-2.574,9.769-2.574h8.226c3.839,0,7.061,0.858,9.667,2.574
	c2.674,1.673,4.011,3.739,4.011,6.204v31.68c0,0.484,0.273,0.902,0.823,1.255c0.547,0.351,1.199,0.528,1.953,0.528L-756.076-132.258
	L-756.076-132.258z M-769.752-172.717c0-0.483-0.275-0.901-0.823-1.255c-0.549-0.352-1.2-0.527-1.954-0.527h-8.226
	c-0.755,0-1.406,0.176-1.954,0.527c-0.549,0.354-0.822,0.771-0.822,1.255v1.782h13.78L-769.752-172.717L-769.752-172.717z
	 M-756.59-132.588v-6.336l0.514-0.33l0.515,0.33v6.336l-0.515,0.33L-756.59-132.588z"/>
<g>
	<path fill="#FFFFFF" d="M-576.981-310.039c1.536-0.287,2.809-1.056,3.816-2.303c1.008-1.248,1.512-2.664,1.512-4.248v-0.938h-3.815
		c-0.528,0-0.984-0.19-1.368-0.576c-0.385-0.384-0.576-0.839-0.576-1.367v-21.097h-7.632v21.097c0,2.399,0.757,4.477,2.269,6.229
		C-581.263-311.49-579.333-310.423-576.981-310.039z"/>
	<path fill="#FFFFFF" d="M-545.063-340.49c-1.824-1.872-4.08-2.808-6.768-2.808h-5.76c-2.689,0-4.969,0.936-6.84,2.808
		c-1.824,1.825-2.736,4.08-3.736,5.769l0.045,20.774c1.084,4.625-5.185,8.459-6.802,8.399c-3.258-0.121,1.009-0.094-1.675-0.094
		h-8.641l-0.359,0.359v6.912l0.359,0.359h8.641c4.229,0,7.925-1.268,11.105-3.768l1.782-1.562l0.964-0.901
		c1.89-2.551,2.238-2.835,3.153-5.328c0.798-2.054,1.211-4.27,1.211-6.658v-19.268c0.243-0.112,0.506-0.173,0.792-0.173h5.76
		c0.527,0,0.983,0.191,1.368,0.576c0.384,0.385,0.576,0.84,0.576,1.367v3.816h7.632v-3.816
		C-542.255-336.41-543.19-338.665-545.063-340.49z"/>
</g>
<path fill="#FFFFFF" d="M-553.096-297.01v-9.204c0-1.074,0.41-1.976,1.229-2.704c0.838-0.748,1.861-1.122,3.065-1.122h2.583
	c1.207,0,2.219,0.374,3.037,1.122c0.84,0.729,1.259,1.629,1.259,2.704v8.427h-3.423v-8.427c0-0.21-0.086-0.394-0.258-0.547
	c-0.174-0.153-0.378-0.229-0.615-0.229h-2.583c-0.236,0-0.439,0.076-0.613,0.229c-0.172,0.153-0.258,0.336-0.258,0.547v9.204"/>
<g>
	<g>
		<path d="M-502.457-269.889c1.536-0.286,2.809-1.056,3.816-2.303c1.008-1.248,1.512-2.664,1.512-4.248v-0.937h-3.815
			c-0.528,0-0.984-0.191-1.368-0.576c-0.385-0.384-0.576-0.839-0.576-1.368v-21.096h-7.632v21.096c0,2.4,0.757,4.478,2.269,6.229
			S-504.809-270.273-502.457-269.889z"/>
		<path d="M-470.539-300.34c-1.824-1.872-4.08-2.81-6.768-2.81h-5.76c-2.689,0-4.969,0.938-6.84,2.81
			c-1.824,1.823-2.736,4.08-3.736,5.768l0.045,20.775c1.084,4.625-5.185,8.459-6.802,8.397c-3.258-0.12,1.009-0.092-1.675-0.092
			h-8.641l-0.359,0.359v6.912l0.359,0.358h8.641c4.229,0,7.925-1.268,11.105-3.768l1.782-1.562l0.964-0.9
			c1.89-2.553,2.238-2.835,3.153-5.328c0.798-2.055,1.211-4.271,1.211-6.657v-19.269c0.243-0.112,0.506-0.174,0.792-0.174h5.76
			c0.527,0,0.983,0.191,1.368,0.576c0.384,0.385,0.576,0.84,0.576,1.367v3.816h7.632v-3.816
			C-467.73-296.26-468.666-298.516-470.539-300.34z"/>
	</g>
	<path d="M-478.571-256.859v-9.204c0-1.073,0.41-1.975,1.229-2.704c0.838-0.748,1.861-1.121,3.065-1.121h2.583
		c1.207,0,2.219,0.373,3.037,1.121c0.84,0.729,1.259,1.631,1.259,2.704v8.428h-3.423v-8.428c0-0.21-0.086-0.394-0.258-0.547
		c-0.174-0.153-0.378-0.229-0.615-0.229h-2.583c-0.236,0-0.439,0.075-0.613,0.229c-0.172,0.153-0.258,0.337-0.258,0.547v9.204"/>
</g>
<path d="M-289.378-398.296c2.129-7.312-0.675-14.88-6.45-19.115c0.045-0.141,0.094-0.28,0.135-0.423
	c2.718-9.333-2.601-19.086-11.876-21.787c-2.908-0.846-5.859-0.899-8.623-0.285c-2.202-3.363-5.556-5.985-9.704-7.194
	c-6.837-1.989-13.911,0.409-18.248,5.541c-0.071-0.021-0.14-0.046-0.21-0.066c-9.278-2.7-18.999,2.676-21.716,12.008
	c-0.751,2.579-0.887,5.189-0.497,7.674c-3.678,2.203-6.572,5.752-7.869,10.208c-2.15,7.39,0.738,15.04,6.64,19.247
	c-2.289,9.129,2.99,18.494,12.051,21.13c2.347,0.684,4.72,0.848,7.004,0.563c2.199,3.417,5.581,6.083,9.775,7.304
	c7.077,2.062,14.412-0.585,18.7-6.099c0.116,0.038,0.231,0.077,0.351,0.111c9.276,2.701,18.998-2.676,21.714-12.008
	c0.628-2.147,0.821-4.318,0.644-6.42C-293.732-390.094-290.71-393.717-289.378-398.296z"/>
<path d="M-844.379,234.258c1.077-5.146-1.247-10.206-5.435-12.811c0.023-0.104,0.05-0.197,0.072-0.301
	c1.374-6.566-2.791-12.996-9.304-14.356c-2.04-0.431-4.068-0.308-5.936,0.259c-1.689-2.196-4.129-3.819-7.042-4.43
	c-4.8-1.008-9.53,1.021-12.241,4.782c-0.049-0.011-0.098-0.02-0.146-0.032c-6.512-1.363-12.907,2.854-14.281,9.419
	c-0.38,1.814-0.335,3.615,0.063,5.308c-2.41,1.714-4.21,4.312-4.869,7.444c-1.088,5.2,1.299,10.313,5.571,12.89
	c-1.09,6.405,3.027,12.567,9.386,13.9c1.646,0.345,3.287,0.327,4.838,0.012c1.691,2.238,4.152,3.89,7.097,4.509
	c4.97,1.038,9.866-1.175,12.522-5.192c0.082,0.017,0.164,0.036,0.246,0.059c6.513,1.361,12.908-2.858,14.281-9.425
	c0.317-1.51,0.337-3.017,0.107-4.451C-846.939,240.129-845.056,237.476-844.379,234.258z"/>
<path d="M-533.11-400.894c-0.346-0.551-1.095-0.828-2.246-0.828c-0.954,0-1.687,0.134-2.196,0.396
	c-0.511,0.264-0.922,0.601-1.234,1.008c-0.313,0.408-0.567,0.854-0.766,1.332c-0.196,0.48-0.443,0.961-0.74,1.44
	c-0.098,0.144-0.295,0.407-0.592,0.792s-0.635,0.769-1.012,1.151c-0.379,0.386-0.782,0.721-1.209,1.009
	c-0.429,0.287-0.807,0.432-1.136,0.432l-0.099-0.72l3.949-13.752c0.131-0.528,0.147-1.044,0.049-1.549
	c-0.099-0.504-0.28-0.995-0.543-1.476c-0.264-0.479-0.576-0.947-0.938-1.404c-0.362-0.456-0.709-0.875-1.037-1.26l0.1-0.144
	c0.592-0.385,1.191-0.815,1.801-1.297c0.609-0.479,1.185-0.982,1.729-1.512c0.542-0.526,1.019-1.066,1.432-1.62
	c0.41-0.551,0.697-1.115,0.863-1.691l3.061-10.656c0.296-1.008,0.197-2.004-0.297-2.988c-0.493-0.982-1.233-1.858-2.221-2.628
	c-0.988-0.767-2.131-1.379-3.432-1.836c-1.3-0.456-2.607-0.684-3.923-0.684h-12.636c-0.197,0-0.453,0.061-0.766,0.18
	c-0.192,0.074-0.374,0.173-0.56,0.265c-0.069,0.023-0.142,0.033-0.211,0.06c-0.378,0.144-0.715,0.324-1.012,0.54
	c-0.296,0.216-0.478,0.468-0.543,0.756l-4.64,16.128c-0.297,0.48-0.494,0.768-0.592,0.864c-0.889,1.249-1.959,2.195-3.209,2.844
	s-2.813,0.972-4.689,0.972c-1.974,0-3.487-0.49-4.54-1.476c-1.054-0.983-1.35-2.196-0.89-3.636l4.641-15.841
	c0.032-0.239-0.042-0.455-0.223-0.647c-0.181-0.191-0.428-0.36-0.74-0.504c-0.313-0.145-0.65-0.252-1.012-0.324
	c-0.362-0.072-0.69-0.108-0.986-0.108c-0.79,0-1.598,0.192-2.42,0.576c-0.822,0.386-1.332,0.913-1.529,1.584l-4.641,15.84
	c-0.328,1.152-0.369,2.232-0.123,3.24c0.247,1.008,0.717,1.908,1.407,2.7c0.691,0.792,1.579,1.476,2.665,2.052
	c0.85,0.451,1.78,0.813,2.79,1.088c0.114,0.031,0.23,0.062,0.348,0.091c0.071,0.018,0.143,0.034,0.215,0.052
	c0,0,1.038,0.239,1.542,0.319c1.801,0.288,0.814,0.129,2.785,0.129c1.971,0,1.744-0.208,2.785-0.382
	c1.402-0.186,2.79-0.556,4.162-1.103l-6.403,22.055c-0.066,0.241-0.024,0.468,0.124,0.685c0.146,0.216,0.353,0.396,0.616,0.54
	c0.263,0.144,0.56,0.264,0.889,0.359c0.329,0.098,0.642,0.145,0.938,0.145c0.492,0,1.044-0.061,1.652-0.181
	c0.609-0.118,1.111-0.347,1.506-0.684c0.164-0.096,0.37-0.276,0.617-0.54c0.247-0.263,0.37-0.42,0.37-0.468l12.537-43.2h7.699
	c0.692,0,1.358,0.108,1.999,0.324c0.643,0.216,1.201,0.504,1.68,0.864c0.477,0.359,0.838,0.768,1.086,1.224
	c0.246,0.457,0.304,0.949,0.172,1.476l-2.764,9.36c-0.099,0.385-0.362,0.804-0.79,1.26c-0.428,0.457-0.79,0.828-1.086,1.116
	c-0.79,0.72-1.712,1.177-2.765,1.368c-1.053,0.191-2.081,0.359-3.084,0.504c-1.005,0.144-1.909,0.373-2.715,0.684
	c-0.807,0.313-1.342,0.926-1.604,1.836c-0.197,0.625-0.173,1.105,0.074,1.44c0.247,0.336,0.617,0.601,1.11,0.792
	c0.494,0.192,1.069,0.349,1.728,0.468c0.658,0.121,1.315,0.252,1.975,0.396c0.657,0.144,1.259,0.336,1.802,0.575
	c0.543,0.241,0.945,0.602,1.209,1.08c0.099,0.241,0.205,0.54,0.32,0.9c0.115,0.36,0.141,0.66,0.075,0.9l-3.851,13.248
	c-0.363,1.151-0.238,2.304,0.371,3.455c0.607,1.152,1.701,1.825,3.281,2.017h1.58c1.678,0,3.248-0.313,4.713-0.937
	c1.465-0.624,2.765-1.416,3.9-2.376c1.135-0.959,2.088-2.016,2.862-3.168c0.771-1.151,1.324-2.278,1.653-3.384
	C-532.691-399.706-532.766-400.341-533.11-400.894z"/>
<path fill="#FFFFFF" d="M-309.344-393.656c-0.301-0.479-0.954-0.721-1.957-0.721c-0.832,0-1.47,0.116-1.915,0.345
	c-0.444,0.23-0.802,0.523-1.074,0.878c-0.272,0.356-0.495,0.743-0.667,1.161c-0.172,0.419-0.388,0.837-0.645,1.255
	c-0.087,0.125-0.259,0.356-0.516,0.69c-0.259,0.335-0.554,0.669-0.883,1.003c-0.33,0.335-0.682,0.628-1.054,0.879
	c-0.373,0.251-0.703,0.376-0.989,0.376l-0.087-0.627l3.441-11.984c0.114-0.46,0.129-0.91,0.043-1.349
	c-0.086-0.439-0.244-0.868-0.472-1.287c-0.229-0.417-0.503-0.825-0.818-1.224c-0.315-0.397-0.616-0.763-0.903-1.099l0.086-0.125
	c0.516-0.334,1.04-0.71,1.571-1.129c0.529-0.418,1.031-0.856,1.504-1.318c0.474-0.459,0.889-0.93,1.248-1.411
	c0.358-0.48,0.609-0.973,0.752-1.476l2.667-9.286c0.259-0.878,0.172-1.746-0.259-2.604c-0.429-0.856-1.074-1.62-1.935-2.29
	c-0.86-0.668-1.857-1.202-2.989-1.601c-1.134-0.396-2.273-0.596-3.419-0.596h-11.012c-0.172,0-0.396,0.053-0.667,0.157
	c-0.167,0.063-0.325,0.151-0.487,0.23c-0.062,0.021-0.124,0.028-0.184,0.052c-0.33,0.125-0.623,0.282-0.882,0.471
	c-0.259,0.188-0.415,0.408-0.474,0.659l-4.042,14.054c-0.259,0.418-0.431,0.669-0.518,0.752c-0.773,1.089-1.705,1.914-2.795,2.479
	c-1.09,0.564-2.452,0.847-4.086,0.847c-1.721,0-3.04-0.428-3.957-1.286c-0.918-0.856-1.176-1.914-0.774-3.168l4.042-13.803
	c0.029-0.209-0.035-0.397-0.192-0.565c-0.158-0.167-0.372-0.313-0.645-0.438s-0.567-0.22-0.882-0.282
	c-0.316-0.063-0.603-0.094-0.861-0.094c-0.688,0-1.391,0.167-2.107,0.501c-0.717,0.335-1.16,0.795-1.333,1.38l-4.043,13.804
	c-0.288,1.004-0.322,1.945-0.107,2.823c0.215,0.878,0.623,1.663,1.226,2.353c0.603,0.69,1.376,1.286,2.322,1.788
	c0.74,0.394,1.552,0.708,2.432,0.948c0.1,0.027,0.2,0.053,0.303,0.078c0.062,0.016,0.124,0.03,0.188,0.045
	c0,0,0.903,0.208,1.344,0.278c1.569,0.251,0.708,0.111,2.426,0.111s1.52-0.182,2.427-0.333c1.223-0.162,2.433-0.483,3.627-0.961
	l-5.579,19.219c-0.058,0.21-0.021,0.408,0.108,0.597c0.128,0.188,0.307,0.345,0.537,0.471c0.229,0.125,0.486,0.23,0.774,0.313
	c0.286,0.084,0.558,0.125,0.816,0.125c0.431,0,0.911-0.053,1.441-0.157c0.53-0.104,0.968-0.302,1.313-0.596
	c0.144-0.083,0.322-0.24,0.538-0.471c0.215-0.229,0.321-0.366,0.321-0.408l10.926-37.645h6.709c0.603,0,1.183,0.094,1.743,0.282
	c0.558,0.188,1.046,0.438,1.462,0.753c0.415,0.313,0.731,0.669,0.946,1.065c0.215,0.398,0.266,0.827,0.151,1.286l-2.409,8.157
	c-0.086,0.335-0.315,0.701-0.688,1.098c-0.373,0.398-0.688,0.723-0.946,0.974c-0.688,0.627-1.491,1.024-2.408,1.191
	c-0.919,0.168-1.814,0.314-2.689,0.439s-1.663,0.324-2.364,0.596c-0.704,0.273-1.169,0.807-1.398,1.601
	c-0.172,0.544-0.151,0.963,0.064,1.255c0.214,0.292,0.538,0.522,0.968,0.689c0.43,0.167,0.932,0.305,1.505,0.408
	c0.574,0.105,1.146,0.22,1.721,0.345c0.575,0.125,1.097,0.293,1.57,0.502c0.473,0.21,0.824,0.523,1.055,0.941
	c0.085,0.21,0.178,0.47,0.278,0.784c0.1,0.313,0.122,0.576,0.065,0.785l-3.356,11.544c-0.315,1.004-0.208,2.007,0.323,3.012
	c0.53,1.003,1.484,1.59,2.86,1.756h1.376c1.462,0,2.832-0.271,4.108-0.814c1.275-0.543,2.408-1.233,3.398-2.071
	c0.988-0.836,1.82-1.756,2.494-2.761c0.674-1.003,1.153-1.986,1.441-2.949C-308.979-392.621-309.042-393.175-309.344-393.656z"/>
<path fill="#FFFFFF" d="M-424.383-391.939c-0.346-0.551-1.095-0.828-2.246-0.828c-0.955,0-1.687,0.134-2.197,0.396
	c-0.51,0.264-0.92,0.601-1.233,1.008c-0.313,0.408-0.567,0.854-0.765,1.332c-0.197,0.48-0.445,0.961-0.74,1.44
	c-0.1,0.144-0.297,0.407-0.592,0.792c-0.297,0.385-0.635,0.769-1.013,1.151c-0.379,0.386-0.782,0.721-1.209,1.008
	c-0.429,0.288-0.808,0.433-1.136,0.433l-0.1-0.72l3.949-13.752c0.131-0.528,0.148-1.045,0.049-1.549
	c-0.098-0.504-0.279-0.996-0.541-1.476c-0.264-0.479-0.577-0.947-0.939-1.404c-0.361-0.456-0.707-0.875-1.036-1.26l0.099-0.144
	c0.592-0.385,1.193-0.815,1.803-1.297c0.607-0.479,1.184-0.982,1.727-1.512c0.543-0.527,1.02-1.066,1.432-1.62
	c0.411-0.551,0.699-1.116,0.863-1.691l3.061-10.656c0.297-1.008,0.197-2.004-0.297-2.988c-0.492-0.982-1.232-1.858-2.221-2.628
	c-0.986-0.767-2.131-1.379-3.43-1.836c-1.301-0.456-2.609-0.684-3.924-0.684h-12.637c-0.197,0-0.453,0.061-0.765,0.18
	c-0.192,0.074-0.374,0.173-0.56,0.265c-0.07,0.023-0.143,0.033-0.211,0.06c-0.379,0.144-0.715,0.324-1.012,0.54
	s-0.477,0.468-0.543,0.756l-4.639,16.128c-0.297,0.479-0.494,0.768-0.594,0.864c-0.888,1.249-1.957,2.195-3.208,2.844
	c-1.251,0.647-2.813,0.972-4.688,0.972c-1.975,0-3.488-0.491-4.541-1.476c-1.054-0.983-1.35-2.196-0.889-3.636l4.639-15.841
	c0.033-0.239-0.041-0.456-0.221-0.647c-0.182-0.191-0.428-0.36-0.74-0.504c-0.313-0.145-0.65-0.252-1.012-0.324
	c-0.363-0.072-0.691-0.108-0.988-0.108c-0.789,0-1.596,0.192-2.418,0.576c-0.823,0.385-1.332,0.913-1.53,1.584l-4.64,15.84
	c-0.33,1.152-0.37,2.232-0.123,3.24c0.246,1.008,0.715,1.908,1.406,2.7s1.579,1.476,2.665,2.052c0.85,0.451,1.78,0.813,2.79,1.088
	c0.115,0.031,0.23,0.062,0.348,0.09c0.07,0.019,0.143,0.035,0.215,0.053c0,0,1.037,0.238,1.542,0.319
	c1.802,0.288,0.813,0.128,2.784,0.128c1.972,0,1.744-0.208,2.785-0.381c1.402-0.186,2.791-0.556,4.162-1.103l-6.402,22.055
	c-0.066,0.241-0.025,0.468,0.124,0.685c0.147,0.216,0.353,0.396,0.616,0.54c0.263,0.144,0.559,0.264,0.889,0.359
	c0.328,0.097,0.641,0.145,0.938,0.145c0.494,0,1.045-0.061,1.654-0.181c0.608-0.119,1.11-0.347,1.506-0.684
	c0.164-0.096,0.369-0.276,0.617-0.54c0.246-0.263,0.369-0.42,0.369-0.468l12.537-43.2h7.699c0.691,0,1.357,0.108,2,0.324
	c0.641,0.216,1.2,0.504,1.678,0.863c0.477,0.36,0.84,0.769,1.086,1.225c0.247,0.457,0.305,0.949,0.174,1.476l-2.765,9.36
	c-0.099,0.385-0.362,0.804-0.79,1.26c-0.428,0.457-0.789,0.828-1.086,1.116c-0.789,0.72-1.711,1.177-2.764,1.368
	c-1.055,0.191-2.082,0.359-3.086,0.504c-1.004,0.144-1.908,0.373-2.713,0.684c-0.809,0.313-1.342,0.925-1.605,1.836
	c-0.197,0.625-0.173,1.105,0.074,1.44c0.246,0.336,0.617,0.601,1.11,0.792c0.493,0.191,1.069,0.349,1.728,0.468
	c0.658,0.121,1.315,0.252,1.975,0.396c0.658,0.144,1.258,0.336,1.802,0.575c0.542,0.241,0.945,0.602,1.21,1.08
	c0.098,0.241,0.204,0.54,0.32,0.9c0.114,0.36,0.14,0.66,0.074,0.9l-3.852,13.247c-0.361,1.152-0.238,2.305,0.371,3.456
	c0.608,1.152,1.703,1.825,3.282,2.017h1.579c1.678,0,3.25-0.313,4.715-0.937c1.464-0.624,2.764-1.416,3.899-2.376
	c1.135-0.959,2.089-2.016,2.862-3.168c0.773-1.151,1.324-2.278,1.654-3.384C-423.964-390.751-424.037-391.386-424.383-391.939z"/>
<line fill="none" stroke="#FFFFFF" stroke-miterlimit="10" x1="-489.236" y1="-372.122" x2="-412.236" y2="-372.122"/>
<circle fill="none" stroke="#000000" stroke-width="3" stroke-miterlimit="10" cx="-787.221" cy="370.218" r="29.465"/>
<path fill="none" stroke="#000000" stroke-width="3" stroke-miterlimit="10" d="M-899.799,504.624"/>
<path fill="none" stroke="#000000" stroke-width="4" stroke-miterlimit="10" d="M-865.376,552.005
	c-5.24,4.792-12.218,7.715-19.878,7.715c-16.273,0-29.465-13.19-29.465-29.465c0-5.491,1.502-10.633,4.119-15.034"/>
<path fill="none" stroke="#000000" stroke-width="4" stroke-miterlimit="10" d="M-899.64,504.478
	c4.291-2.439,9.255-3.834,14.544-3.834c16.273,0,29.465,13.193,29.465,29.466c0,3.4-0.576,6.668-1.636,9.707"/>
<g>
	<polyline fill="none" stroke="#000000" stroke-width="3" stroke-miterlimit="10" points="-761.775,384.103 -795.342,384.103 
		-795.342,358.235 -807.145,348.517 	"/>
	<polyline fill="none" stroke="#000000" stroke-width="3" stroke-miterlimit="10" points="-795.342,358.235 -778.73,358.235 
		-778.73,384.103 	"/>
	
		<line fill="none" stroke="#000000" stroke-width="3" stroke-miterlimit="10" x1="-779.24" y1="368.304" x2="-794.832" y2="374.034"/>
</g>
<circle cx="-663.773" cy="368.095" r="29.465"/>
<circle cx="-460.312" cy="285.28" r="47.631"/>
<g>
	<polyline stroke="#FFFFFF" stroke-width="3" stroke-miterlimit="10" points="-636.591,382.911 -672.922,382.911 -672.922,354.913 
		-685.697,344.394 	"/>
	<polyline stroke="#FFFFFF" stroke-width="3" stroke-miterlimit="10" points="-672.922,354.913 -654.942,354.913 -654.942,382.911 	
		"/>
	
		<line fill="none" stroke="#FFFFFF" stroke-width="3" stroke-miterlimit="10" x1="-655.494" y1="365.811" x2="-672.37" y2="372.014"/>
</g>
<g>
	<polyline stroke="#FFFFFF" stroke-width="3" stroke-miterlimit="10" points="-847.074,244.64 -883.405,244.64 -883.405,216.642 
		-896.181,206.122 	"/>
	<polyline stroke="#FFFFFF" stroke-width="3" stroke-miterlimit="10" points="-883.405,216.642 -865.426,216.642 -865.426,244.64 	
		"/>
	
		<line fill="none" stroke="#FFFFFF" stroke-width="3" stroke-miterlimit="10" x1="-865.978" y1="227.539" x2="-882.854" y2="233.742"/>
</g>
<path fill="none" stroke="#FFFFFF" stroke-width="3" stroke-miterlimit="10" d="M-431.305,416.295
	c1.287-1.565,2.229-3.459,2.676-5.583c1.146-5.479-1.329-10.866-5.787-13.639c0.024-0.109,0.055-0.211,0.077-0.318
	c1.462-6.993-2.972-13.837-9.906-15.286c-2.171-0.458-4.331-0.327-6.318,0.275c-1.798-2.339-4.396-4.066-7.497-4.717
	c-5.11-1.071-10.146,1.088-13.032,5.094 M-486.453,392.112c-0.405,1.935-0.357,3.853,0.067,5.652
	c-2.566,1.824-4.483,4.588-5.185,7.925c-1.158,5.537,1.383,10.979,5.933,13.724c-1.16,6.819,3.223,13.38,9.992,14.799
	c1.752,0.367,3.499,0.349,5.151,0.014c1.8,2.383,4.419,4.142,7.556,4.801c5.291,1.104,10.504-1.251,13.332-5.529
	c0.086,0.019,0.173,0.04,0.26,0.063c5.138,1.073,10.205-1.112,13.082-5.161"/>
<g>
	<polyline fill="none" stroke="#FFFFFF" stroke-width="2" stroke-miterlimit="10" points="-433.364,422.245 -469.696,422.245 
		-469.696,394.247 -482.472,383.728 	"/>
	<polyline fill="none" stroke="#FFFFFF" stroke-width="2" stroke-miterlimit="10" points="-469.696,394.247 -451.716,394.247 
		-451.716,422.245 	"/>
	
		<line fill="none" stroke="#FFFFFF" stroke-width="2" stroke-miterlimit="10" x1="-452.269" y1="405.145" x2="-469.144" y2="411.348"/>
</g>
<path fill="none" stroke="#FFFFFF" stroke-width="3" stroke-miterlimit="10" d="M-555.378,294.43
	c1.287-1.564,2.229-3.459,2.676-5.583c1.146-5.479-1.329-10.866-5.787-13.639c0.024-0.109,0.055-0.21,0.077-0.318
	c1.462-6.993-2.972-13.837-9.906-15.286c-2.171-0.458-4.331-0.327-6.318,0.275c-1.798-2.338-4.396-4.066-7.497-4.716
	c-5.11-1.072-10.146,1.087-13.032,5.093 M-610.526,270.247c-0.405,1.934-0.357,3.852,0.067,5.651
	c-2.566,1.824-4.483,4.589-5.185,7.926c-1.158,5.536,1.383,10.979,5.933,13.723c-1.16,6.819,3.223,13.38,9.992,14.799
	c1.752,0.367,3.499,0.349,5.151,0.014c1.8,2.383,4.419,4.142,7.556,4.801c5.291,1.104,10.504-1.251,13.332-5.529
	c0.086,0.019,0.173,0.04,0.26,0.063c5.138,1.073,10.205-1.112,13.082-5.161"/>
<g>
	<polyline fill="none" stroke="#FFFFFF" stroke-width="2" stroke-miterlimit="10" points="-557.438,300.38 -593.77,300.38 
		-593.77,272.382 -606.545,261.862 	"/>
	<polyline fill="none" stroke="#FFFFFF" stroke-width="2" stroke-miterlimit="10" points="-575.789,300.38 -575.789,272.382 
		-593.77,272.382 	"/>
	<path fill="none" stroke="#FFFFFF" stroke-width="2" stroke-miterlimit="10" d="M-593.217,289.482l16.875-6.203L-593.217,289.482z"
		/>
</g>
<path fill="none" stroke="#000000" stroke-width="3" stroke-miterlimit="10" d="M-592.146,179.361
	c1.287-1.564,2.229-3.459,2.676-5.583c1.146-5.479-1.329-10.865-5.787-13.639c0.024-0.109,0.055-0.21,0.077-0.318
	c1.462-6.992-2.972-13.837-9.906-15.285c-2.171-0.458-4.331-0.327-6.318,0.274c-1.798-2.338-4.396-4.065-7.497-4.716
	c-5.11-1.072-10.146,1.087-13.032,5.093 M-647.294,155.179c-0.405,1.935-0.357,3.853,0.067,5.652
	c-2.566,1.824-4.483,4.588-5.185,7.925c-1.158,5.537,1.383,10.979,5.933,13.723c-1.16,6.819,3.223,13.38,9.992,14.799
	c1.752,0.367,3.499,0.35,5.151,0.015c1.8,2.382,4.419,4.141,7.556,4.8c5.291,1.104,10.504-1.251,13.332-5.529
	c0.086,0.02,0.173,0.04,0.26,0.063c5.138,1.073,10.205-1.113,13.082-5.162"/>
<g>
	<polyline fill="none" stroke="#000000" stroke-width="3" stroke-miterlimit="10" points="-594.205,185.312 -630.537,185.312 
		-630.537,157.313 -643.313,146.794 	"/>
	<polyline fill="none" stroke="#000000" stroke-width="3" stroke-miterlimit="10" points="-612.557,185.312 -612.557,157.313 
		-630.537,157.313 	"/>
	
		<line fill="none" stroke="#000000" stroke-width="3" stroke-miterlimit="10" x1="-629.984" y1="174.414" x2="-613.109" y2="168.211"/>
</g>
<path fill="none" stroke="#FFFFFF" stroke-width="3" stroke-miterlimit="10" d="M-431.911,294.43
	c1.287-1.564,2.229-3.459,2.676-5.583c1.146-5.479-1.329-10.866-5.787-13.639c0.024-0.109,0.055-0.21,0.077-0.318
	c1.462-6.993-2.972-13.837-9.906-15.286c-2.171-0.458-4.331-0.327-6.318,0.275c-1.798-2.338-4.396-4.066-7.497-4.716
	c-5.11-1.072-10.146,1.087-13.032,5.093 M-487.06,270.247c-0.405,1.934-0.357,3.852,0.067,5.651
	c-2.566,1.824-4.483,4.589-5.185,7.926c-1.158,5.536,1.383,10.979,5.933,13.723c-1.16,6.819,3.223,13.38,9.992,14.799
	c1.752,0.367,3.499,0.349,5.151,0.014c1.8,2.383,4.419,4.142,7.556,4.801c5.291,1.104,10.504-1.251,13.332-5.529
	c0.086,0.019,0.173,0.04,0.26,0.063c5.138,1.073,10.205-1.112,13.082-5.161"/>
<g>
	<polyline fill="none" stroke="#FFFFFF" stroke-width="2" stroke-miterlimit="10" points="-433.971,300.38 -470.303,300.38 
		-470.303,272.382 -483.078,261.862 	"/>
	<polyline fill="none" stroke="#FFFFFF" stroke-width="2" stroke-miterlimit="10" points="-470.303,272.382 -452.322,272.382 
		-452.322,300.38 	"/>
	
		<line fill="none" stroke="#FFFFFF" stroke-width="2" stroke-miterlimit="10" x1="-452.875" y1="283.279" x2="-469.75" y2="289.482"/>
</g>
<g>
	<polyline fill="none" stroke="#000000" stroke-width="3" stroke-miterlimit="10" points="-858.731,546.171 -895.063,546.171 
		-895.063,518.173 -907.838,507.654 	"/>
	<polyline fill="none" stroke="#000000" stroke-width="3" stroke-miterlimit="10" points="-895.063,518.173 -877.083,518.173 
		-877.083,546.171 	"/>
	
		<line fill="none" stroke="#000000" stroke-width="3" stroke-miterlimit="10" x1="-877.635" y1="529.071" x2="-894.511" y2="535.274"/>
</g>
<path fill="none" stroke="#000000" stroke-width="3" stroke-miterlimit="10" d="M-821.769,503.513"/>
<path fill="none" stroke="#000000" stroke-width="4" stroke-miterlimit="10" d="M-787.346,550.894
	c-5.24,4.792-12.218,7.716-19.878,7.716c-16.273,0-29.465-13.191-29.465-29.466c0-5.49,1.502-10.633,4.119-15.033"/>
<path fill="none" stroke="#000000" stroke-width="4" stroke-miterlimit="10" d="M-821.609,503.366
	c4.291-2.44,9.255-3.834,14.544-3.834c16.273,0,29.465,13.192,29.465,29.465c0,3.401-0.576,6.668-1.636,9.707"/>
<g>
	<polyline fill="none" stroke="#000000" stroke-width="3" stroke-miterlimit="10" points="-780.701,545.06 -817.032,545.06 
		-817.032,517.062 -829.808,506.542 	"/>
	<polyline fill="none" stroke="#000000" stroke-width="3" stroke-miterlimit="10" points="-817.032,517.062 -799.053,517.062 
		-799.053,545.06 	"/>
	
		<line fill="none" stroke="#000000" stroke-width="3" stroke-miterlimit="10" x1="-799.604" y1="527.959" x2="-816.48" y2="534.162"/>
</g>
<path fill="none" stroke="#FFFFFF" stroke-miterlimit="10" d="M-918.333,374.125"/>
<path fill="none" stroke="#FFFFFF" stroke-width="3" stroke-miterlimit="10" d="M-895.375,400.311
	c-5.24,4.792-12.218,7.715-19.878,7.715c-16.273,0-29.465-13.19-29.465-29.465c0-5.491,1.502-10.633,4.119-15.034"/>
<path fill="none" stroke="#FFFFFF" stroke-width="3" stroke-miterlimit="10" d="M-929.638,352.783
	c4.291-2.44,9.255-3.834,14.544-3.834c16.273,0,29.465,13.192,29.465,29.465c0,3.4-0.576,6.668-1.636,9.707"/>
<g>
	<polyline fill="none" stroke="#FFFFFF" stroke-width="2" stroke-miterlimit="10" points="-888.73,394.477 -925.061,394.477 
		-925.061,366.479 -937.836,355.959 	"/>
	<polyline fill="none" stroke="#FFFFFF" stroke-width="2" stroke-miterlimit="10" points="-925.061,366.479 -907.082,366.479 
		-907.082,394.477 	"/>
	
		<line fill="none" stroke="#FFFFFF" stroke-width="2" stroke-miterlimit="10" x1="-907.633" y1="377.376" x2="-924.509" y2="383.579"/>
</g>
<circle stroke="#FFFFFF" stroke-width="3" stroke-miterlimit="10" cx="-678.829" cy="495.564" r="30.236"/>
<g>
	<polyline fill="none" stroke="#FFFFFF" stroke-width="3" stroke-miterlimit="10" points="-652.69,511.055 -688.1,511.055 
		-688.1,483.771 -700.548,473.517 	"/>
	<polyline fill="none" stroke="#FFFFFF" stroke-width="3" stroke-miterlimit="10" points="-688.1,483.771 -670.576,483.771 
		-670.576,511.055 	"/>
	
		<line fill="none" stroke="#FFFFFF" stroke-width="3" stroke-miterlimit="10" x1="-671.114" y1="494.39" x2="-687.561" y2="500.435"/>
</g>
<path d="M-833.604-260.866"/>
<path d="M-926.179-338.755l-0.403-6.247c-1.243,1.945-2.621,3.604-4.134,4.972c-1.514,1.37-3.089,2.242-4.723,2.617
	c-1.424,0.327-2.887,0.324-4.388-0.011c-1.499-0.339-2.909-0.996-4.228-1.972c-1.318-0.968-2.488-2.255-3.514-3.854
	c-1.026-1.6-1.789-3.497-2.294-5.689c-0.664-2.887-1.096-5.579-1.291-8.066c-0.2-2.485-0.443-5.561-0.735-9.216
	c-0.291-3.655-0.315-6.591-0.073-8.797c0.245-2.206,0.583-4.462,1.024-6.764c0.337-1.652,1.057-3.014,2.154-4.087
	c1.097-1.074,2.254-1.753,3.472-2.031c1.037-0.24,1.996-0.152,2.871,0.255c0.877,0.415,1.457,1.233,1.74,2.461
	c0.083,0.371,0.138,0.775,0.166,1.221c0.027,0.452,0.009,0.946-0.052,1.482c-0.172,1.646-0.196,3.57-0.074,5.758
	c0.124,2.187,0.289,5.104,0.495,8.75c0.206,3.648,0.368,6.54,0.49,8.681c0.119,2.136,0.364,4.009,0.736,5.62
	c0.192,0.841,0.431,1.64,0.718,2.404c0.284,0.769,0.63,1.43,1.042,1.984c0.411,0.561,0.882,0.98,1.417,1.266
	c0.533,0.287,1.142,0.346,1.824,0.188c1.1-0.251,1.97-1.013,2.615-2.29c0.646-1.271,1.122-2.739,1.428-4.395
	c0.309-1.658,0.478-3.333,0.509-5.027c0.033-1.696-0.016-3.098-0.144-4.193l-0.715-19.45c-0.044-1.146,0.143-2.231,0.563-3.275
	c0.396-0.997,0.925-1.899,1.587-2.701c0.664-0.796,1.389-1.443,2.184-1.942c0.794-0.493,1.579-0.832,2.352-1.012
	c0.922-0.211,1.748-0.165,2.474,0.138c0.729,0.31,1.204,0.944,1.426,1.906c0.068,0.301,0.104,0.659,0.107,1.077
	c0.063,0.919,0.151,2.148,0.262,3.688c0.108,1.548,0.232,3.301,0.375,5.269c0.14,1.967,0.336,4.727,0.592,8.272
	c0.254,3.55,0.458,6.403,0.604,8.566c0.382,5.105,0.831,10.572,1.353,16.422c0.771-0.774,1.586-1.692,2.438-2.766
	c0.853-1.065,1.756-2.449,2.713-4.136c0.957-1.686,1.981-3.762,3.07-6.229c1.088-2.473,2.251-5.509,3.486-9.109l4.688,10.595
	c-0.3,1.146-0.744,2.34-1.333,3.589c-0.634,1.325-1.333,2.632-2.099,3.921c-1.137,1.856-1.971,3.125-2.502,3.805
	c-0.171,0.214-1.037,1.414-2.594,3.605c-0.466,0.704-2.08,2.684-4.846,5.938c-0.676,0.788-0.979,2.002-0.917,3.646
	c0.061,1.648,0.388,4.657,0.981,9.026c0.111,1.264,0.22,2.229,0.33,2.899c0.185,1.627,0.36,3.175,0.528,4.65
	c0.168,1.475,0.257,3.182,0.266,5.117c0.008,1.94-0.09,3.746-0.3,5.42c-0.208,1.677-0.594,3.383-1.163,5.123
	c-0.566,1.738-1.282,3.273-2.143,4.61c-0.865,1.335-2.005,2.515-3.424,3.541c-1.417,1.027-3.062,1.752-4.926,2.181
	c-1.514,0.351-2.957,0.481-4.335,0.396c-1.375-0.086-2.69-0.404-3.94-0.955s-2.375-1.433-3.372-2.653
	c-1-1.222-1.771-2.747-2.316-4.577c-1.046-3.463-1.04-7.376,0.021-11.735c0.593-2.445,1.017-4.143,1.267-5.086
	c0.254-0.95,0.669-2.329,1.253-4.142c0.592-1.776,1.263-3.417,2.013-4.917c1.477-3.098,2.708-5.6,3.692-7.502
	C-928.851-334.427-927.631-336.501-926.179-338.755z M-923.261-326.787c-1.703,2.14-3.146,5.268-4.328,9.384
	c-1.183,4.119-1.934,8.204-2.252,12.265c-0.252,3.415,0.606,4.897,2.565,4.444c0.713-0.162,1.329-0.41,1.848-0.74
	c0.519-0.328,0.956-0.803,1.313-1.428c0.356-0.625,0.641-1.282,0.857-1.979c0.216-0.694,0.396-1.649,0.541-2.853
	c0.145-1.208,0.25-2.384,0.313-3.536c0.064-1.148,0.127-2.674,0.19-4.579c0.046-1.023-0.002-2.141-0.145-3.353
	c-0.144-1.213-0.315-2.669-0.517-4.367C-923.076-325.227-923.205-326.315-923.261-326.787z"/>
<path d="M-888.681-341.752c-2.245,0.515-4.313,0.52-6.203,0.015c-1.889-0.505-3.569-1.385-5.04-2.639
	c-1.47-1.251-2.714-2.807-3.732-4.661c-1.017-1.854-1.777-3.872-2.279-6.055c-0.328-1.427-0.468-3.185-0.42-5.275
	c0.049-2.091,0.166-3.964,0.353-5.615s0.526-3.266,1.02-4.842s1.165-3.019,2.009-4.326c0.845-1.308,1.873-2.43,3.08-3.364
	c1.208-0.936,2.638-1.593,4.288-1.972c1.348-0.31,2.653-0.366,3.917-0.167c1.261,0.197,2.417,0.618,3.465,1.259
	c1.045,0.643,1.948,1.501,2.702,2.575c0.756,1.076,1.301,2.349,1.639,3.819c0.36,1.564,0.275,3.431-0.253,5.601
	c-0.531,2.167-1.285,4.098-2.267,5.784c-0.982,1.688-2.247,3.28-3.793,4.779c-1.545,1.5-3.297,2.792-5.254,3.881
	c0.521,0.598,1.006,1.085,1.461,1.458c0.453,0.374,0.891,0.646,1.313,0.813c0.418,0.171,0.839,0.261,1.261,0.269
	c0.422,0.01,0.862-0.039,1.322-0.145c1.443-0.332,2.893-0.983,4.354-1.959c1.458-0.974,2.844-2.09,4.149-3.346
	c1.306-1.259,2.507-2.578,3.609-3.959c1.099-1.384,2.008-2.664,2.726-3.838l5.821,4.005c-1.562,2.906-3.316,5.564-5.27,7.971
	c-0.852,1.037-1.782,2.077-2.795,3.123c-1.013,1.045-2.108,2.019-3.279,2.918c-1.175,0.898-2.422,1.689-3.747,2.371
	C-885.851-342.593-887.236-342.085-888.681-341.752z M-897.739-359.09c0.868-0.202,1.764-0.652,2.681-1.355
	c0.919-0.703,1.734-1.522,2.447-2.456c0.711-0.935,1.349-2.118,1.91-3.551c0.56-1.431,0.748-2.55,0.562-3.36
	c-0.261-1.136-0.676-2.023-1.243-2.663c-0.566-0.64-1.139-0.895-1.718-0.762c-1.038,0.239-1.878,0.646-2.523,1.219
	c-0.644,0.572-1.137,1.239-1.484,1.996c-0.348,0.759-0.578,1.581-0.691,2.472c-0.112,0.889-0.229,1.985-0.349,3.291
	c-0.12,1.303-0.114,2.353,0.018,3.144C-897.996-360.321-897.866-359.647-897.739-359.09z"/>
<path d="M-876.146-362.604c-0.214-0.931-0.415-2.025-0.6-3.283c-0.187-1.262-0.353-2.599-0.503-4.012
	c-0.148-1.414-0.273-2.856-0.375-4.336s-0.16-3.069-0.179-4.77c-0.018-1.697-0.023-3.117-0.014-4.254
	c0.008-1.137,0.06-2.083,0.154-2.841c0.051-0.5,0.124-0.906,0.218-1.218c0.094-0.313,0.227-0.569,0.397-0.776
	c0.171-0.205,0.401-0.37,0.696-0.494c0.292-0.123,0.666-0.236,1.118-0.342c0.512-0.116,0.917-0.184,1.214-0.194
	c0.298-0.011,0.539,0.063,0.723,0.234c0.185,0.169,0.335,0.439,0.452,0.815c0.116,0.373,0.251,0.886,0.402,1.543
	c0.179,0.782,0.386,1.902,0.618,3.364c0.233,1.46,0.492,2.725,0.779,3.794l0.326-0.073c0.199-0.938,0.436-2.163,0.71-3.671
	c0.276-1.512,0.633-2.794,1.074-3.854c0.44-1.06,1.003-1.995,1.686-2.81c0.684-0.813,1.568-1.345,2.652-1.594
	c0.375-0.085,0.753-0.101,1.14-0.045c0.386,0.057,0.741,0.182,1.065,0.373s0.608,0.455,0.851,0.791
	c0.243,0.332,0.417,0.73,0.524,1.198c0.083,0.356,0.149,0.87,0.199,1.538c0.05,0.667,0.085,1.543,0.107,2.632
	c0.021,1.085,0.059,1.972,0.114,2.663c0.054,0.688,0.133,1.252,0.235,1.697c0.176,0.763,0.39,1.378,0.645,1.854
	c0.255,0.476,0.529,0.842,0.827,1.095c0.297,0.254,0.603,0.413,0.918,0.475c0.314,0.061,0.629,0.054,0.945-0.017
	c0.885-0.206,1.753-0.627,2.601-1.269c0.848-0.64,1.604-1.314,2.271-2.023c0.785-0.828,1.529-1.732,2.236-2.719l1.264,7.522
	c-0.43,0.479-0.918,1.015-1.465,1.607c-0.548,0.592-1.147,1.172-1.795,1.73c-0.649,0.562-1.341,1.064-2.079,1.514
	c-0.737,0.445-1.519,0.767-2.346,0.957c-1.477,0.339-2.743,0.292-3.797-0.146c-1.055-0.437-1.968-1.117-2.741-2.04
	c-0.772-0.926-1.437-2.008-1.991-3.25c-0.555-1.241-1.064-2.509-1.529-3.804l-0.472,0.108l-1.649,17.042
	c-0.086,0.887-0.19,1.629-0.312,2.225c-0.123,0.595-0.273,1.093-0.451,1.49c-0.179,0.396-0.4,0.695-0.664,0.903
	c-0.264,0.205-0.573,0.348-0.927,0.429c-0.808,0.188-1.5,0.15-2.078-0.104c-0.577-0.258-1.07-0.668-1.479-1.229
	c-0.41-0.562-0.75-1.229-1.021-2.001C-875.719-360.949-875.952-361.758-876.146-362.604z"/>
<path d="M-836.241-383.844c-0.492,0.771-1.127,1.622-1.908,2.548c-0.781,0.929-1.649,1.815-2.606,2.665
	c-0.958,0.849-1.959,1.603-3.005,2.264c-1.048,0.659-2.083,1.107-3.106,1.342c-0.917,0.209-1.721,0.25-2.411,0.119
	c-0.69-0.131-1.285-0.396-1.787-0.801c-0.501-0.402-0.918-0.942-1.248-1.612c-0.332-0.672-0.595-1.433-0.792-2.287
	c-0.274-1.191-0.471-2.614-0.589-4.261c-0.249-3.411-0.347-5.336-0.294-5.775c0.054-0.863,0.123-2.766,0.206-5.708
	c0.148-2.415,0.224-3.983,0.225-4.702c-0.025-0.498,0.119-0.986,0.43-1.461c0.284-0.431,0.631-0.808,1.041-1.134
	c0.409-0.324,0.849-0.596,1.317-0.816c0.471-0.219,0.905-0.374,1.303-0.465c0.728-0.165,1.256-0.134,1.584,0.101
	c0.328,0.235,0.548,0.595,0.662,1.089c0.096,0.417,0.141,1.026,0.135,1.832c-0.008,0.8-0.014,1.717-0.021,2.745
	c-0.007,1.024-0.064,2.356-0.168,3.989c-0.101,1.635-0.112,3.011-0.031,4.128c0.082,1.119,0.119,2.237,0.11,3.363
	c-0.01,1.124,0.085,2.12,0.287,2.989c0.196,0.854,0.441,1.513,0.733,1.973c0.291,0.46,0.71,0.63,1.258,0.503
	c0.635-0.147,1.286-0.546,1.953-1.199c0.668-0.652,1.322-1.405,1.961-2.261c0.64-0.855,1.256-1.729,1.849-2.625
	c0.595-0.894,1.122-1.664,1.586-2.308L-836.241-383.844z M-855.099-410.672c-0.085-0.372-0.103-0.813-0.05-1.32
	c0.055-0.508,0.213-1.011,0.481-1.508c0.268-0.495,0.672-0.957,1.211-1.378c0.539-0.425,1.259-0.739,2.163-0.947
	c0.563-0.13,1.11-0.186,1.641-0.171c0.53,0.014,1.011,0.111,1.444,0.294c0.432,0.184,0.808,0.47,1.125,0.856
	c0.319,0.387,0.547,0.881,0.685,1.479c0.127,0.553,0.162,1.109,0.103,1.667c-0.058,0.563-0.233,1.089-0.527,1.583
	c-0.293,0.493-0.706,0.937-1.237,1.323c-0.53,0.386-1.206,0.673-2.03,0.862c-1.418,0.326-2.543,0.23-3.375-0.286
	C-854.297-408.734-854.842-409.552-855.099-410.672z"/>
<path d="M-839.507-387.536c-0.258-1.124-0.494-2.439-0.706-3.94c-0.212-1.502-0.425-3.161-0.641-4.966
	c-0.214-1.809-0.367-3.444-0.454-4.916c-0.087-1.468-0.136-2.729-0.145-3.787c-0.006-0.823,0.181-1.558,0.559-2.199
	c0.379-0.644,0.996-1.065,1.854-1.261c0.857-0.198,1.517-0.055,1.979,0.434c0.463,0.483,0.802,1.194,1.018,2.133
	c0.06,0.258,0.114,0.606,0.167,1.051c0.052,0.446,0.102,0.938,0.152,1.471c0.047,0.537,0.095,1.092,0.143,1.665
	c0.047,0.572,0.118,1.22,0.209,1.942c0.091,0.725,0.153,1.265,0.186,1.626c0.033,0.36,0.063,0.6,0.09,0.72l0.476-0.108
	c0.052-0.209,0.134-0.548,0.245-1.013c0.109-0.464,0.209-1.121,0.299-1.965c0.088-0.847,0.219-1.608,0.389-2.283
	c0.171-0.675,0.327-1.322,0.47-1.938c0.142-0.617,0.275-1.164,0.4-1.639c0.124-0.479,0.218-0.833,0.282-1.063
	c0.296-1.035,0.73-1.8,1.302-2.29c0.573-0.49,1.255-0.828,2.049-1.01c0.793-0.184,1.507,0.029,2.139,0.639
	c0.633,0.606,1.094,1.541,1.384,2.804c0.044,0.187,0.082,0.511,0.111,0.968c0.031,0.461,0.061,1.009,0.09,1.65
	c0.031,0.636,0.09,1.458,0.178,2.457c0.09,1.004,0.165,1.9,0.232,2.693c0.064,0.793,0.148,1.571,0.248,2.337
	c0.102,0.765,0.225,1.467,0.37,2.096c0.242,1.059,0.565,1.896,0.968,2.521c0.402,0.626,0.866,0.877,1.39,0.759
	c0.19-0.043,0.442-0.184,0.756-0.417c0.476-0.325,0.768-0.582,0.876-0.768c0.565-0.74,0.865-1.104,0.901-1.095
	c0.051,0.008,0.504-0.456,1.36-1.39c1.07-1.16-1.287-2.332,0.184-3.997l4.921,5.488l-0.966,1.244
	c-0.077,0.107-0.721,0.723-1.933,1.844c-1.749,1.622-2.85,2.608-3.304,2.965c-1.101,0.883-1.791,1.4-2.073,1.555
	c-0.732,0.455-1.532,0.782-2.405,0.984c-0.873,0.198-1.763-0.312-2.67-1.525c-0.906-1.218-1.66-3.134-2.259-5.736
	c-0.235-1.023-0.424-2.142-0.569-3.354c-0.146-1.213-0.282-2.523-0.404-3.931l-0.381,0.087l-3.179,14.727
	c-0.17,0.79-0.417,1.35-0.743,1.678c-0.338,0.345-0.768,0.58-1.292,0.697c-0.651,0.152-1.208,0.123-1.673-0.084
	c-0.466-0.207-0.863-0.538-1.193-0.989c-0.33-0.452-0.603-0.99-0.821-1.612C-839.163-386.202-839.35-386.855-839.507-387.536z"/>
<path d="M-795.64-406.022c-0.2,0.534-3.562,6.354-3.932,7.094c-0.369,0.741-0.809,1.468-1.319,2.177
	c-0.511,0.713-1.087,1.351-1.731,1.908c-0.643,0.559-1.331,0.923-2.065,1.092c-0.885,0.204-1.693,0.074-2.422-0.394
	c-0.731-0.467-1.442-1.224-2.136-2.269c-0.231,0.467-0.536,0.96-0.912,1.48c-0.375,0.519-0.805,1.01-1.286,1.47
	c-0.481,0.462-1,0.87-1.555,1.219c-0.557,0.354-1.136,0.597-1.741,0.736c-0.641,0.146-1.295,0.149-1.967,0.007
	c-0.672-0.142-1.302-0.421-1.89-0.841c-0.588-0.421-1.109-0.976-1.563-1.671c-0.454-0.692-0.791-1.517-1.01-2.469
	c-0.247-1.068-0.357-2.2-0.335-3.391c0.021-1.191,0.178-2.511,0.466-3.961c0.288-1.445,0.661-2.728,1.118-3.837
	c0.458-1.109,1.007-2.116,1.648-3.016c0.64-0.895,1.358-1.661,2.154-2.286c0.794-0.625,1.655-1.044,2.581-1.259
	c0.308-0.068,0.564-0.061,0.768,0.03c0.206,0.089,0.382,0.204,0.536,0.345c0.151,0.14,0.3,0.276,0.444,0.412
	c0.143,0.134,0.304,0.219,0.482,0.253c0.177,0.036,0.353,0.048,0.526,0.028c0.171-0.019,0.344-0.043,0.52-0.088
	c0.147-0.031,0.296-0.069,0.451-0.113c0.15-0.041,0.301-0.079,0.448-0.117c0.203-0.043,0.396-0.065,0.58-0.063
	c0.184,0.003,0.359,0.063,0.527,0.177c0.167,0.114,0.317,0.292,0.45,0.537c0.133,0.242,0.251,0.586,0.354,1.035
	c0.158,0.686,0.264,1.46,0.323,2.325c0.059,0.863,0.103,1.755,0.132,2.667c0.029,0.916,0.063,1.957,0.1,3.128
	c0.037,1.173,0.145,2.141,0.321,2.907c0.151,0.657,0.326,1.156,0.525,1.501c0.197,0.341,0.484,0.473,0.857,0.386
	c0.279-0.063,0.556-0.204,0.828-0.425c0.273-0.219,0.54-0.485,0.795-0.799c0.259-0.312,0.509-0.66,0.753-1.037
	c0.242-0.377,0.466-0.761,0.671-1.152c0.477-0.914,2.839-7.05,3.284-8.166L-795.64-406.022z M-816.259-398.575
	c0.084,0.368,0.191,0.721,0.317,1.058c0.126,0.335,0.281,0.627,0.465,0.871c0.183,0.245,0.394,0.434,0.632,0.555
	c0.24,0.124,0.512,0.149,0.82,0.081c0.495-0.116,0.889-0.448,1.183-1.004c0.294-0.552,0.514-1.186,0.659-1.9
	c0.145-0.717,0.229-1.44,0.249-2.175c0.021-0.73,0.006-1.334-0.046-1.812l-0.115-7.319c-0.545,0.125-1.046,0.393-1.499,0.804
	c-0.454,0.412-0.853,0.917-1.199,1.518c-0.347,0.603-0.638,1.271-0.878,1.995c-0.24,0.729-0.439,1.604-0.596,2.626
	c-0.159,1.021-0.233,1.903-0.222,2.648C-816.48-399.885-816.402-399.201-816.259-398.575z"/>
<path d="M-962.256-57.067c3.66-3.78,9.6-3.78,13.2,0c3.6,3.66,3.6,9.72,0,13.5l-8.22,8.4v8.398c0,5.28-4.32,9.54-9.6,9.54
	c-5.22,0-9.54-4.26-9.54-9.54v-8.398l-8.22-8.4c-3.6-3.78-3.6-9.839,0-13.5c3.6-3.78,9.419-3.78,13.02,0l4.74,4.8L-962.256-57.067z"
	/>
<path d="M-935.436-59.767h15.659c7.56,0,11.76,8.641,7.86,14.699c-1.92,3.12-4.74,4.2-8.34,4.32c-0.42,0-0.42,0.6,0,0.78
	c3.3,0.42,6.54-0.301,8.94-2.82c1.62,3.54,1.02,8.16-1.62,10.8c-1.8,1.98-4.2,2.7-6.72,3c-0.42,0-0.42,0.72,0,0.72
	c3.12,0.301,6.24-0.3,8.459-2.939c0.6,1.02,0.9,2.1,0.9,4.62c0,3.72-2.82,9.479-9.48,9.479h-15.779c-5.34,0-9.54-4.32-9.54-9.479
	v-23.52C-945.095-55.447-941.075-59.767-935.436-59.767z"/>
<path d="M-887.077-59.707h8.34c5.279,0,9.6,4.14,9.6,9.18c0,4.561-2.76,7.919-6.66,9.12c-0.36,0-0.36,0.18-0.36,0.3
	c0,0.3,0,0.3,0.36,0.48c3.72,1.14,6.48,4.739,6.48,9.06v5.04c0,4.8-4.68,9.359-9.419,9.359h-8.52
	c-11.879,0-21.599-9.479-21.599-21.419C-908.855-50.527-898.956-59.707-887.077-59.707z M-887.376-33.968
	c1.02-2.82,2.88-5.101,5.58-6.24c0.48-0.12,0.3-0.72-0.12-0.72h-3.9c-1.56,0-2.4,1.02-2.4,2.52v4.32
	C-888.217-33.668-887.617-33.488-887.376-33.968z"/>
<path d="M-962.095,17.292V-6.228c0-5.279,4.38-9.479,9.72-9.479h13.439c9.419,0,17.039,7.62,17.039,17.039
	c0,5.88-2.76,11.04-7.319,14.22c-0.3,0.18,0,0.78,0.36,0.6c1.98-0.899,3.84-2.159,5.4-3.959c2.7,3.841,2.22,8.88-1.2,12.3
	c-3.42,3.42-9.899,4.08-13.139-0.301l-5.16-6.119c-0.3,5.039-4.38,8.939-9.6,8.939C-957.715,27.011-962.095,22.631-962.095,17.292z
	 M-942.956-0.288v4.08c0.3,0.18,0.6,0.18,1.08,0.18c1.26,0,2.16-0.96,2.16-2.22s-0.9-2.34-2.16-2.34
	C-942.355-0.588-942.655-0.468-942.956-0.288z"/>
<path d="M-916.095,17.231V-6.167c0-5.221,4.2-9.419,9.479-9.419c5.46,0,9.66,4.2,9.66,9.419v23.398c0,5.221-4.2,9.601-9.66,9.601
	C-911.896,26.831-916.095,22.451-916.095,17.231z"/>
<path d="M-942.696,69.07c-3.54-3.419-6.959-6.658-10.319-10.198c-0.18-0.36-0.72,0.18-0.54,0.6l3.42,5.28
	c-0.9,4.14-4.8,7.26-9.3,7.26c-5.28,0-9.6-4.2-9.6-9.6v-23.64c0-5.221,4.32-9.6,9.6-9.6c2.88,0,5.52,1.56,7.32,3.359l9.779,9.6
	c0.18,0.36,0.72,0,0.54-0.36l-3.54-5.159c0.9-4.079,4.8-7.438,9.239-7.438c5.34,0,9.66,4.379,9.66,9.6v23.64
	C-926.437,71.65-937.296,74.531-942.696,69.07z"/>
<path d="M-908.796,68.831c-3.72,3.72-9.78,3.72-13.5,0c-3.66-3.66-3.66-9.54,0-13.261l22.799-23.099
	c2.94-3.42,8.04-4.32,11.939-1.979c2.94,1.5,4.8,4.619,4.8,8.22v23.699c0,5.22-4.68,9.42-9.48,9.42c-4.919,0-8.219-3-9.239-7.021
	l3.66-5.64c0.18-0.479-0.3-0.84-0.6-0.479L-908.796,68.831z"/>
<path d="M-753.263-64.239c3.66-3.78,9.6-3.78,13.2,0c3.6,3.66,3.6,9.72,0,13.5l-8.22,8.4v8.398c0,5.28-4.32,9.54-9.6,9.54
	c-5.22,0-9.54-4.26-9.54-9.54v-8.398l-8.22-8.4c-3.6-3.78-3.6-9.839,0-13.5c3.6-3.78,9.419-3.78,13.02,0l4.74,4.8L-753.263-64.239z"
	/>
<path d="M-726.443-66.939h15.659c7.56,0,11.76,8.641,7.86,14.699c-1.92,3.12-4.74,4.2-8.34,4.32c-0.42,0-0.42,0.6,0,0.779
	c3.3,0.42,6.54-0.3,8.94-2.819c1.62,3.54,1.02,8.16-1.62,10.8c-1.8,1.979-4.2,2.7-6.72,3c-0.42,0-0.42,0.72,0,0.72
	c3.12,0.3,6.24-0.3,8.459-2.939c0.6,1.02,0.9,2.1,0.9,4.62c0,3.72-2.82,9.479-9.48,9.479h-15.779c-5.34,0-9.54-4.32-9.54-9.479
	v-23.52C-736.103-62.619-732.083-66.939-726.443-66.939z"/>
<path d="M-678.084-66.879h8.34c5.279,0,9.6,4.14,9.6,9.18c0,4.56-2.76,7.919-6.66,9.12c-0.359,0-0.359,0.18-0.359,0.3
	c0,0.3,0,0.3,0.359,0.48c3.721,1.14,6.479,4.739,6.479,9.06v5.04c0,4.8-4.68,9.359-9.42,9.359h-8.52
	c-11.879,0-21.599-9.479-21.599-21.419C-699.863-57.699-689.963-66.879-678.084-66.879z M-678.384-41.14
	c1.02-2.819,2.88-5.1,5.58-6.239c0.479-0.12,0.3-0.721-0.12-0.721h-3.9c-1.56,0-2.4,1.021-2.4,2.521v4.32
	C-679.224-40.84-678.624-40.66-678.384-41.14z"/>
<path d="M-753.102,10.12v-23.52c0-5.28,4.38-9.479,9.72-9.479h13.439c9.419,0,17.039,7.62,17.039,17.039
	c0,5.88-2.76,11.04-7.319,14.22c-0.3,0.18,0,0.78,0.36,0.6c1.98-0.899,3.84-2.16,5.4-3.959c2.7,3.84,2.22,8.879-1.2,12.299
	c-3.42,3.421-9.899,4.08-13.139-0.3l-5.16-6.12c-0.3,5.04-4.38,8.94-9.6,8.94C-748.722,19.839-753.102,15.459-753.102,10.12z
	 M-733.963-7.459v4.08c0.3,0.18,0.6,0.18,1.08,0.18c1.26,0,2.16-0.96,2.16-2.22c0-1.261-0.9-2.34-2.16-2.34
	C-733.363-7.76-733.663-7.64-733.963-7.459z"/>
<path d="M-707.103,10.06v-23.398c0-5.221,4.2-9.419,9.479-9.419c5.46,0,9.66,4.199,9.66,9.419V10.06c0,5.221-4.2,9.601-9.66,9.601
	C-702.903,19.659-707.103,15.279-707.103,10.06z"/>
<path d="M-733.703,61.898c-3.54-3.419-6.959-6.658-10.319-10.198c-0.18-0.36-0.72,0.18-0.54,0.6l3.42,5.28
	c-0.9,4.14-4.8,7.26-9.3,7.26c-5.28,0-9.6-4.2-9.6-9.6V31.601c0-5.221,4.32-9.6,9.6-9.6c2.88,0,5.52,1.56,7.32,3.358l9.779,9.601
	c0.18,0.359,0.72,0,0.54-0.36l-3.54-5.159c0.9-4.08,4.8-7.438,9.239-7.438c5.34,0,9.66,4.379,9.66,9.6v23.64
	C-717.444,64.479-728.303,67.358-733.703,61.898z"/>
<path d="M-699.803,61.659c-3.72,3.72-9.78,3.72-13.5,0c-3.66-3.66-3.66-9.54,0-13.261l22.799-23.099
	c2.94-3.42,8.04-4.32,11.939-1.98c2.94,1.5,4.8,4.62,4.8,8.221V55.24c0,5.22-4.68,9.42-9.48,9.42c-4.919,0-8.219-3-9.239-7.021
	l3.66-5.64c0.18-0.479-0.3-0.84-0.6-0.479L-699.803,61.659z"/>
<g>
	<g>
		<path d="M-864.142,25.392c-2.394,1.452-4.788,2.904-7.182,4.355c-2.064,1.252-0.181,4.496,1.893,3.237
			c2.394-1.451,4.788-2.903,7.182-4.354C-860.185,27.378-862.068,24.135-864.142,25.392L-864.142,25.392z"/>
	</g>
</g>
<g>
	<g>
		<path d="M-978.724-0.805c-1.709-2.218-3.419-4.435-5.128-6.651c-0.623-0.809-1.599-1.239-2.565-0.673
			c-0.797,0.467-1.298,1.754-0.673,2.564c1.709,2.218,3.419,4.436,5.128,6.652c0.623,0.808,1.599,1.239,2.565,0.673
			C-978.6,1.293-978.099,0.007-978.724-0.805L-978.724-0.805z"/>
	</g>
</g>
<g>
	<g>
		<path d="M-1001.493,17.875c-2.75-0.527-5.5-1.056-8.25-1.582c-2.363-0.453-3.371,3.161-0.997,3.616
			c2.75,0.526,5.5,1.055,8.25,1.582C-1000.127,21.945-999.12,18.331-1001.493,17.875L-1001.493,17.875z"/>
	</g>
</g>
<g>
	<g>
		<path d="M-1017.333-11.937c-5.294,2.043-10.588,4.087-15.882,6.13c-2.231,0.861-1.263,4.488,0.997,3.616
			c5.294-2.043,10.588-4.087,15.882-6.13C-1014.104-9.182-1015.073-12.809-1017.333-11.937L-1017.333-11.937z"/>
	</g>
</g>
<g>
	<g>
		<path d="M-830.758,5.586c-5.541-1.226-11.082-2.45-16.623-3.674c-2.356-0.521-3.358,3.094-0.997,3.615
			c5.541,1.226,11.082,2.449,16.623,3.675C-829.399,9.723-828.397,6.108-830.758,5.586L-830.758,5.586z"/>
	</g>
</g>
<g>
	<g>
		<path d="M-838.125,28.768c-5.294,2.043-10.588,4.087-15.882,6.13c-2.231,0.861-1.263,4.488,0.997,3.616
			c5.294-2.043,10.588-4.087,15.882-6.13C-834.897,31.523-835.866,27.896-838.125,28.768L-838.125,28.768z"/>
	</g>
</g>
<g>
	<g>
		<path d="M-985.72,66.293c-5.294,2.043-10.588,4.087-15.882,6.13c-2.231,0.861-1.263,4.488,0.997,3.617
			c5.294-2.043,10.588-4.088,15.882-6.131C-982.491,69.048-983.46,65.421-985.72,66.293L-985.72,66.293z"/>
	</g>
</g>
<g>
	<g>
		<path d="M-1021.301,34.523c-7.539-2.417-15.077-4.833-22.616-7.25c-2.31-0.739-3.291,2.881-0.997,3.616
			c7.539,2.417,15.077,4.833,22.616,7.25C-1019.989,38.879-1019.008,35.258-1021.301,34.523L-1021.301,34.523z"/>
	</g>
</g>
<g>
	<g>
		<path d="M-838.125-64.775c-5.294,2.043-10.588,4.087-15.882,6.13c-2.231,0.861-1.263,4.488,0.997,3.616
			c5.294-2.043,10.588-4.087,15.882-6.13C-834.897-62.021-835.866-65.647-838.125-64.775L-838.125-64.775z"/>
	</g>
</g>
<g>
	<g>
		<path d="M-1006.711-28.503c-2.761-0.463-5.522-0.928-8.284-1.391c-2.365-0.396-3.378,3.218-0.997,3.616
			c2.761,0.463,5.522,0.927,8.284,1.39C-1005.344-24.49-1004.331-28.104-1006.711-28.503L-1006.711-28.503z"/>
	</g>
</g>
<g>
	<g>
		<path d="M-841.384-32.173c-1.709-2.218-3.419-4.436-5.128-6.652c-0.623-0.808-1.599-1.239-2.565-0.673
			c-0.797,0.467-1.298,1.754-0.673,2.564c1.709,2.218,3.419,4.436,5.128,6.652c0.623,0.808,1.599,1.239,2.565,0.673
			C-841.26-30.075-840.759-31.362-841.384-32.173L-841.384-32.173z"/>
	</g>
</g>
<path stroke="#000000" stroke-width="0.25" stroke-miterlimit="10" d="M-1016.535-50.858c-4.836,0-4.836,7.5,0,7.5
	S-1011.698-50.858-1016.535-50.858z"/>
<path stroke="#000000" stroke-width="0.5" stroke-miterlimit="10" d="M-989.535,22.142c-4.836,0-4.836,7.5,0,7.5
	S-984.698,22.142-989.535,22.142z"/>
<path stroke="#000000" stroke-width="0.2" stroke-miterlimit="10" d="M-862.506,9.893c-4.836,0-4.836,7.5,0,7.5
	S-857.669,9.893-862.506,9.893z"/>
<path stroke="#000000" stroke-width="0.2" stroke-miterlimit="10" d="M-858.878-14.141c-4.836,0-4.836,7.5,0,7.5
	S-854.042-14.141-858.878-14.141z"/>
<path stroke="#000000" stroke-width="0.2" stroke-miterlimit="10" d="M-884.729,9.893c-4.836,0-4.836,7.5,0,7.5
	S-879.893,9.893-884.729,9.893z"/>
<path stroke="#000000" stroke-width="0.2" stroke-miterlimit="10" d="M-862.506,48.004c-4.836,0-4.836,7.5,0,7.5
	S-857.669,48.004-862.506,48.004z"/>
<path stroke="#000000" stroke-width="0.2" stroke-miterlimit="10" d="M-1003.16,51.504c-4.836,0-4.836,7.5,0,7.5
	S-998.324,51.504-1003.16,51.504z"/>
<path stroke="#000000" stroke-width="0.2" stroke-miterlimit="10" d="M-1002.533-1.184c-4.836,0-4.836,7.5,0,7.5
	S-997.696-1.184-1002.533-1.184z"/>
<path stroke="#000000" stroke-width="0.2" stroke-miterlimit="10" d="M-987.335-38.108c-4.836,0-4.836,7.5,0,7.5
	S-982.499-38.108-987.335-38.108z"/>
<path d="M-532.596-35.998v-6.912l0.36-0.36l0.36,0.36v6.912l-0.36,0.359L-532.596-35.998z M-532.235-35.638v-7.632h8.64
	c2.928,0,5.424-1.032,7.488-3.096c2.063-2.064,3.096-4.56,3.096-7.488V-77.83h7.633v23.976c0,5.04-1.777,9.335-5.328,12.889
	c-3.553,3.552-7.848,5.327-12.889,5.327H-532.235z M-530.291-77.83h7.632v21.096c0,0.529,0.19,0.984,0.575,1.368
	c0.385,0.385,0.84,0.576,1.369,0.576h3.815v0.936c0,1.584-0.504,3-1.512,4.248c-1.009,1.248-2.28,2.017-3.816,2.305
	c-2.353-0.386-4.284-1.452-5.796-3.204c-1.512-1.751-2.268-3.827-2.268-6.229L-530.291-77.83L-530.291-77.83z M-503.436-35.638
	h-7.703c2.831-1.92,5.135-4.464,6.911-7.632h0.792V-35.638z M-503.795-35.998v-6.912l0.359-0.36l0.36,0.36v6.912l-0.36,0.359
	L-503.795-35.998z"/>
<path d="M-503.795-35.998v-6.912l0.359-0.36l0.359,0.36v6.912l-0.359,0.359L-503.795-35.998z M-474.636-35.638h-28.8v-7.632h28.8
	V-35.638z M-501.492-68.254c0-2.688,0.912-4.943,2.736-6.769c1.872-1.872,4.151-2.808,6.84-2.808h5.761
	c2.688,0,4.943,0.936,6.768,2.808c1.872,1.825,2.809,4.08,2.809,6.769s-0.937,4.968-2.809,6.84c-1.824,1.825-4.08,2.736-6.768,2.736
	h-7.704v1.943c0,0.529,0.191,0.984,0.576,1.368c0.383,0.385,0.839,0.576,1.367,0.576h12.456v7.632h-12.456
	c-2.641,0-4.92-0.912-6.84-2.736c-1.824-1.919-2.736-4.199-2.736-6.84V-68.254L-501.492-68.254z M-493.859-66.31h7.704
	c0.527,0,0.983-0.19,1.368-0.575c0.383-0.385,0.575-0.84,0.575-1.368c0-0.527-0.192-0.983-0.575-1.368
	c-0.385-0.384-0.841-0.576-1.368-0.576h-5.761c-0.528,0-0.984,0.192-1.367,0.576c-0.385,0.385-0.576,0.84-0.576,1.368V-66.31
	L-493.859-66.31z M-474.995-35.998v-6.912l0.359-0.36l0.36,0.36v6.912l-0.36,0.359L-474.995-35.998z"/>
<path d="M-474.996-35.998v-6.912l0.36-0.36l0.36,0.36v6.912l-0.36,0.359L-474.996-35.998z M-474.636-35.638v-7.632h8.64
	c2.928,0,5.424-1.032,7.488-3.096c2.063-2.064,3.096-4.56,3.096-7.488v-14.399c0-0.527-0.192-0.983-0.575-1.368
	c-0.385-0.384-0.841-0.576-1.368-0.576h-5.761c-0.528,0-0.984,0.192-1.367,0.576c-0.385,0.385-0.576,0.84-0.576,1.368v5.76v5.76
	c0,0.529,0.191,0.984,0.576,1.368c0.383,0.385,0.839,0.576,1.367,0.576h3.816v0.936c0,1.584-0.504,3-1.512,4.248
	c-1.008,1.248-2.28,2.017-3.816,2.305c-2.353-0.386-4.284-1.452-5.796-3.204c-1.512-1.751-2.268-3.827-2.268-6.229v-5.76v-5.76
	c0-2.688,0.911-4.943,2.735-6.769c1.872-1.872,4.151-2.808,6.84-2.808h5.761c2.688,0,4.943,0.936,6.768,2.808
	c1.872,1.825,2.809,4.08,2.809,6.769v14.399c0,5.04-1.776,9.335-5.328,12.889c-3.553,3.552-7.849,5.327-12.889,5.327H-474.636z
	 M-445.836-35.638h-7.704c2.832-1.92,5.136-4.464,6.912-7.632h0.792V-35.638L-445.836-35.638z M-446.195-35.998v-6.912l0.359-0.36
	l0.36,0.36v6.912l-0.36,0.359L-446.195-35.998z"/>
<path d="M-532.596,9.402V2.49l0.36-0.36l0.36,0.36v6.911l-0.36,0.36L-532.596,9.402z M-525.467,6.954
	c-1.825,1.872-4.081,2.808-6.769,2.808V2.13c0.528,0,0.983-0.192,1.368-0.576c0.383-0.385,0.576-0.84,0.576-1.368v-23.04
	c0-2.688,0.911-4.942,2.736-6.768c1.871-1.872,4.15-2.809,6.84-2.809h5.76c2.688,0,4.943,0.937,6.768,2.809
	c1.872,1.825,2.809,4.08,2.809,6.768v3.816h-7.633v-3.816c0-0.526-0.191-0.982-0.576-1.368c-0.385-0.384-0.84-0.575-1.367-0.575
	h-5.76c-0.529,0-0.984,0.191-1.369,0.575c-0.385,0.386-0.575,0.841-0.575,1.368v23.04C-522.659,2.922-523.596,5.177-525.467,6.954z
	 M-503.436,9.762h-19.439c2.207-2.063,3.527-4.608,3.959-7.632h15.48V9.762z M-503.795,9.402V2.49l0.359-0.36l0.36,0.36v6.911
	l-0.36,0.36L-503.795,9.402z"/>
<path d="M-503.795,9.402V2.49l0.359-0.36l0.359,0.36v6.911l-0.359,0.36L-503.795,9.402z M-491.916,9.762h-11.52V2.13h11.52V9.762z
	 M-501.492-40.134c0-1.056,0.372-1.955,1.117-2.7c0.743-0.744,1.643-1.116,2.699-1.116c1.056,0,1.955,0.372,2.7,1.116
	c0.743,0.745,1.116,1.645,1.116,2.7s-0.373,1.957-1.116,2.699c-0.745,0.745-1.645,1.116-2.7,1.116c-1.057,0-1.956-0.371-2.699-1.116
	C-501.12-38.177-501.492-39.078-501.492-40.134z M-501.492-1.758V-32.43h7.633v30.673H-501.492z M-492.275,9.402V2.49l0.359-0.36
	l0.36,0.36v6.911l-0.36,0.36L-492.275,9.402z"/>
<path d="M-492.276,9.402V2.49l0.36-0.36l0.359,0.36v6.911l-0.359,0.36L-492.276,9.402z M-485.148,6.954
	c-1.825,1.872-4.08,2.808-6.768,2.808V2.13c0.527,0,0.982-0.192,1.367-0.576c0.384-0.385,0.576-0.84,0.576-1.368v-23.04
	c0-2.688,0.912-4.942,2.736-6.768c1.872-1.872,4.151-2.809,6.84-2.809h5.76c2.688,0,4.943,0.937,6.769,2.809
	c1.872,1.825,2.808,4.08,2.808,6.768v21.097h-7.632v-21.097c0-0.526-0.192-0.982-0.576-1.368c-0.385-0.384-0.84-0.575-1.368-0.575
	h-5.76c-0.528,0-0.984,0.191-1.368,0.575c-0.385,0.386-0.576,0.841-0.576,1.368v23.04C-482.341,2.922-483.276,5.177-485.148,6.954z
	 M-463.116,9.762h-19.44c2.207-2.063,3.528-4.608,3.96-7.632h15.48V9.762z M-463.477,9.402V2.49l0.36-0.36l0.359,0.36v6.911
	l-0.359,0.36L-463.477,9.402z"/>
<path d="M-463.478,9.402V2.49l0.36-0.36l0.36,0.36v6.911l-0.36,0.36L-463.478,9.402z M-446.306,6.27
	c0.695,1.32,1.572,2.484,2.629,3.492h-19.44V2.13h15.48C-447.446,3.57-447.002,4.949-446.306,6.27z M-434.317,9.762
	c-2.688,0-4.968-0.936-6.84-2.808c-1.825-1.825-2.736-4.08-2.736-6.769v-13.464h-7.704c-0.528,0-0.984,0.192-1.367,0.576
	c-0.385,0.385-0.576,0.84-0.576,1.368s0.191,0.983,0.576,1.368c0.383,0.385,0.839,0.575,1.367,0.575h3.816v7.633h-3.816
	c-2.64,0-4.92-0.912-6.84-2.736c-1.824-1.919-2.735-4.2-2.735-6.84c0-2.688,0.911-4.943,2.735-6.769
	c1.872-1.872,4.151-2.808,6.84-2.808h7.704v-1.944c0-0.526-0.192-0.982-0.575-1.368c-0.385-0.384-0.841-0.575-1.368-0.575h-8.641
	h-3.815v-7.633h3.815h8.641c2.688,0,4.943,0.937,6.768,2.809c1.872,1.825,2.809,4.08,2.809,6.768v23.04
	c0,0.528,0.19,0.983,0.575,1.368c0.384,0.384,0.84,0.576,1.368,0.576L-434.317,9.762L-434.317,9.762z M-434.677,9.402V2.49
	l0.359-0.36l0.36,0.36v6.911l-0.36,0.36L-434.677,9.402z"/>
<path d="M-344.596,108.002v-6.912l0.36-0.36l0.36,0.36v6.912l-0.36,0.359L-344.596,108.002z M-315.436,108.362h-8.64
	c-2.209,0-4.129-0.647-5.76-1.943c-1.681,1.296-3.601,1.943-5.761,1.943h-8.64v-7.633h8.64c0.528,0,0.983-0.19,1.368-0.576
	c0.384-0.385,0.576-0.84,0.576-1.366V73.802c-2.448-0.191-4.513-1.224-6.192-3.096c-1.632-1.824-2.447-3.984-2.447-6.48V54.65h7.632
	v9.576c0,0.529,0.191,0.984,0.576,1.368c0.383,0.385,0.839,0.576,1.367,0.576h5.761c0.527,0,0.983-0.191,1.368-0.576
	c0.383-0.384,0.575-0.839,0.575-1.368V54.65h7.633v9.576c0,1.249-0.217,2.425-0.648,3.528c-0.432,1.104-1.033,2.088-1.8,2.952
	c-0.769,0.863-1.681,1.56-2.736,2.088c-1.057,0.529-2.208,0.864-3.456,1.008v24.984c0,0.526,0.191,0.981,0.576,1.366
	c0.384,0.386,0.839,0.576,1.368,0.576h8.64V108.362L-315.436,108.362z M-315.795,108.002v-6.912l0.359-0.36l0.36,0.36v6.912
	l-0.36,0.359L-315.795,108.002z"/>
<path d="M-315.796,108.002v-6.912l0.36-0.36l0.36,0.36v6.912l-0.36,0.359L-315.796,108.002z M-286.636,108.362h-8.64
	c-2.209,0-4.129-0.647-5.76-1.943c-1.681,1.296-3.601,1.943-5.761,1.943h-8.64v-7.633h8.64c0.528,0,0.983-0.19,1.368-0.576
	c0.384-0.385,0.576-0.84,0.576-1.366v-1.944c-2.448-0.192-4.513-1.224-6.192-3.097c-1.632-1.822-2.447-3.983-2.447-6.479v-11.52
	c0-2.688,0.911-4.943,2.735-6.769c1.872-1.872,4.151-2.808,6.84-2.808h5.761c2.688,0,4.943,0.936,6.768,2.808
	c1.872,1.825,2.809,4.08,2.809,6.769s-0.937,4.968-2.809,6.84c-1.824,1.825-4.08,2.736-6.768,2.736h-7.704v1.943
	c0,0.529,0.191,0.984,0.576,1.368c0.383,0.385,0.839,0.576,1.367,0.576h12.456v7.632h-5.76v1.944c0,0.526,0.191,0.981,0.576,1.366
	c0.384,0.386,0.839,0.576,1.368,0.576h8.64v7.633H-286.636z M-305.859,77.69h7.704c0.527,0,0.983-0.19,1.368-0.575
	c0.383-0.385,0.575-0.84,0.575-1.368c0-0.527-0.192-0.983-0.575-1.368c-0.385-0.384-0.841-0.576-1.368-0.576h-5.761
	c-0.528,0-0.984,0.192-1.367,0.576c-0.385,0.385-0.576,0.84-0.576,1.368V77.69L-305.859,77.69z M-286.995,108.002v-6.912l0.359-0.36
	l0.36,0.36v6.912l-0.36,0.359L-286.995,108.002z"/>
<path d="M-286.996,108.002v-6.912l0.36-0.36l0.36,0.36v6.912l-0.36,0.359L-286.996,108.002z M-286.636,108.362v-7.633h8.64
	c2.928,0,5.424-1.031,7.488-3.096c2.063-2.064,3.096-4.56,3.096-7.488V75.745c0-0.527-0.192-0.983-0.575-1.368
	c-0.385-0.384-0.841-0.576-1.368-0.576h-5.761c-0.528,0-0.984,0.192-1.367,0.576c-0.385,0.385-0.576,0.84-0.576,1.368v5.76v5.76
	c0,0.529,0.191,0.984,0.576,1.368c0.383,0.385,0.839,0.576,1.367,0.576h3.816v0.936c0,1.583-0.504,3-1.512,4.248
	c-1.008,1.248-2.28,2.017-3.816,2.306c-2.353-0.386-4.284-1.453-5.796-3.205c-1.512-1.751-2.268-3.827-2.268-6.229v-5.76v-5.76
	c0-2.688,0.911-4.943,2.735-6.769c1.872-1.872,4.151-2.808,6.84-2.808h5.761c2.688,0,4.943,0.936,6.768,2.808
	c1.872,1.825,2.809,4.08,2.809,6.769v14.399c0,5.041-1.776,9.335-5.328,12.889c-3.553,3.551-7.849,5.327-12.889,5.327
	L-286.636,108.362L-286.636,108.362z M-257.836,108.362h-7.704c2.832-1.921,5.136-4.465,6.912-7.633h0.792V108.362L-257.836,108.362
	z M-258.195,108.002v-6.912l0.359-0.36l0.36,0.36v6.912l-0.36,0.359L-258.195,108.002z"/>
<path d="M-344.596,160.402v-6.911l0.36-0.36l0.36,0.36v6.911l-0.36,0.36L-344.596,160.402z M-337.468,157.954
	c-1.824,1.872-4.08,2.809-6.768,2.809v-7.633c0.527,0,0.983-0.192,1.368-0.575c0.384-0.385,0.576-0.841,0.576-1.368v-23.041
	c0-2.688,0.911-4.941,2.735-6.768c1.872-1.871,4.151-2.809,6.84-2.809h5.761c2.688,0,4.943,0.938,6.768,2.809
	c1.872,1.825,2.809,4.08,2.809,6.768v3.816h-7.633v-3.816c0-0.526-0.192-0.981-0.575-1.367c-0.385-0.384-0.841-0.575-1.368-0.575
	h-5.761c-0.528,0-0.984,0.191-1.367,0.575c-0.385,0.386-0.576,0.841-0.576,1.367v23.041
	C-334.659,153.922-335.596,156.178-337.468,157.954z M-315.436,160.763h-19.439c2.207-2.063,3.527-4.607,3.96-7.633h15.479V160.763z
	 M-315.795,160.402v-6.911l0.359-0.36l0.36,0.36v6.911l-0.36,0.36L-315.795,160.402z"/>
<path d="M-315.796,160.402v-6.911l0.36-0.36l0.36,0.36v6.911l-0.36,0.36L-315.796,160.402z M-309.676,158.818
	c-1.681,1.297-3.6,1.944-5.76,1.944v-7.633c0.527,0,0.983-0.192,1.368-0.575c0.384-0.385,0.576-0.841,0.576-1.368V118.57h7.632
	v32.616c0,0.527,0.191,0.983,0.576,1.368c0.383,0.383,0.839,0.575,1.367,0.575v7.633
	C-306.124,160.763-308.044,160.115-309.676,158.818z M-313.491,110.866c0-1.056,0.371-1.955,1.115-2.7
	c0.744-0.743,1.645-1.116,2.7-1.116c1.055,0,1.955,0.373,2.7,1.116c0.744,0.745,1.116,1.646,1.116,2.7
	c0,1.057-0.372,1.957-1.116,2.699c-0.745,0.745-1.645,1.116-2.7,1.116c-1.055,0-1.956-0.371-2.7-1.116
	C-313.12,112.823-313.491,111.923-313.491,110.866z M-304.275,160.402v-6.911l0.359-0.36l0.36,0.36v6.911l-0.36,0.36
	L-304.275,160.402z"/>
<path d="M-304.276,160.402v-6.911l0.36-0.36l0.36,0.36v6.911l-0.36,0.36L-304.276,160.402z M-297.148,157.954
	c-1.824,1.872-4.08,2.809-6.768,2.809v-7.633c0.527,0,0.983-0.192,1.368-0.575c0.384-0.385,0.576-0.841,0.576-1.368v-23.041
	c0-2.688,0.911-4.941,2.735-6.768c1.872-1.871,4.151-2.809,6.84-2.809h5.761c2.688,0,4.943,0.938,6.768,2.809
	c1.872,1.825,2.809,4.08,2.809,6.768v21.098h-7.633v-21.098c0-0.526-0.192-0.981-0.575-1.367c-0.385-0.384-0.841-0.575-1.368-0.575
	h-5.761c-0.528,0-0.984,0.191-1.367,0.575c-0.385,0.386-0.576,0.841-0.576,1.367v23.041
	C-294.34,153.922-295.276,156.178-297.148,157.954z M-275.116,160.763h-19.439c2.207-2.063,3.527-4.607,3.96-7.633h15.479V160.763z
	 M-275.476,160.402v-6.911l0.359-0.36l0.36,0.36v6.911l-0.36,0.36L-275.476,160.402z"/>
<path d="M-275.477,160.402v-6.911l0.36-0.36l0.36,0.36v6.911l-0.36,0.36L-275.477,160.402z M-258.305,157.271
	c0.695,1.319,1.572,2.483,2.629,3.492h-19.44v-7.633h15.48C-259.445,154.57-259.001,155.949-258.305,157.271z M-246.316,160.763
	c-2.688,0-4.968-0.937-6.84-2.809c-1.825-1.824-2.736-4.08-2.736-6.769v-13.464h-7.704c-0.528,0-0.984,0.192-1.367,0.575
	c-0.385,0.385-0.576,0.841-0.576,1.368c0,0.528,0.191,0.983,0.576,1.368c0.383,0.385,0.839,0.575,1.367,0.575h3.816v7.633h-3.816
	c-2.64,0-4.92-0.912-6.84-2.736c-1.824-1.919-2.735-4.199-2.735-6.84c0-2.688,0.911-4.943,2.735-6.769
	c1.872-1.872,4.151-2.808,6.84-2.808h7.704v-1.945c0-0.526-0.192-0.981-0.575-1.367c-0.385-0.384-0.841-0.575-1.368-0.575h-8.641
	h-3.815v-7.633h3.815h8.641c2.688,0,4.943,0.938,6.768,2.809c1.872,1.825,2.809,4.08,2.809,6.768v23.041
	c0,0.527,0.19,0.983,0.575,1.368c0.384,0.383,0.84,0.575,1.368,0.575L-246.316,160.763L-246.316,160.763z M-246.676,160.402v-6.911
	l0.359-0.36l0.36,0.36v6.911l-0.36,0.36L-246.676,160.402z"/>
<path d="M-349.931-74.291v-6.912l0.36-0.36l0.36,0.36v6.912l-0.36,0.359L-349.931-74.291z M-320.771-73.931h-28.8v-7.632h28.8
	V-73.931z M-347.626-127.643h7.632v9.576c0,0.529,0.191,0.984,0.576,1.368c0.383,0.385,0.839,0.576,1.367,0.576h5.761
	c0.527,0,0.983-0.191,1.368-0.576c0.383-0.384,0.575-0.839,0.575-1.368v-9.576h7.633v9.576c0,1.249-0.217,2.425-0.648,3.528
	c-0.432,1.104-1.033,2.088-1.8,2.952c-0.769,0.863-1.681,1.56-2.736,2.088c-1.057,0.529-2.208,0.864-3.456,1.008v23.04h-7.632
	v-23.04c-2.448-0.191-4.513-1.224-6.192-3.096c-1.632-1.824-2.447-3.984-2.447-6.48L-347.626-127.643L-347.626-127.643z
	 M-321.13-74.291v-6.912l0.359-0.36l0.36,0.36v6.912l-0.36,0.359L-321.13-74.291z"/>
<path d="M-321.131-74.291v-6.912l0.36-0.36l0.36,0.36v6.912l-0.36,0.359L-321.131-74.291z M-291.971-73.931h-28.8v-7.632h28.8
	V-73.931z M-318.826-106.547c0-2.688,0.911-4.943,2.735-6.769c1.872-1.872,4.151-2.808,6.84-2.808h5.761
	c2.688,0,4.943,0.936,6.768,2.808c1.872,1.825,2.809,4.08,2.809,6.769s-0.937,4.968-2.809,6.84c-1.824,1.825-4.08,2.735-6.768,2.735
	h-7.704v1.944c0,0.529,0.191,0.984,0.576,1.368c0.383,0.385,0.839,0.576,1.367,0.576h12.456v7.632h-12.456
	c-2.64,0-4.92-0.912-6.84-2.736c-1.824-1.919-2.735-4.2-2.735-6.84V-106.547L-318.826-106.547z M-311.194-104.603h7.704
	c0.527,0,0.983-0.19,1.368-0.576c0.383-0.384,0.575-0.839,0.575-1.367c0-0.527-0.192-0.983-0.575-1.368
	c-0.385-0.384-0.841-0.576-1.368-0.576h-5.761c-0.528,0-0.984,0.192-1.367,0.576c-0.385,0.385-0.576,0.84-0.576,1.368V-104.603
	L-311.194-104.603z M-292.33-74.291v-6.912l0.359-0.36l0.36,0.36v6.912l-0.36,0.359L-292.33-74.291z"/>
<path d="M-292.331-74.291v-6.912l0.36-0.36l0.36,0.36v6.912l-0.36,0.359L-292.331-74.291z M-291.971-73.931v-7.632h8.64
	c2.928,0,5.424-1.033,7.488-3.096c2.063-2.064,3.096-4.56,3.096-7.488v-14.399c0-0.527-0.192-0.983-0.575-1.368
	c-0.385-0.384-0.841-0.576-1.368-0.576h-5.761c-0.528,0-0.984,0.192-1.367,0.576c-0.385,0.385-0.576,0.84-0.576,1.368v5.76v5.76
	c0,0.529,0.191,0.984,0.576,1.368c0.383,0.385,0.839,0.576,1.367,0.576h3.816v0.936c0,1.584-0.504,3-1.512,4.248
	s-2.28,2.017-3.816,2.304c-2.353-0.385-4.284-1.451-5.796-3.203c-1.512-1.751-2.268-3.827-2.268-6.229v-5.76v-5.76
	c0-2.688,0.911-4.943,2.735-6.769c1.872-1.872,4.151-2.808,6.84-2.808h5.761c2.688,0,4.943,0.936,6.768,2.808
	c1.872,1.825,2.809,4.08,2.809,6.769v14.399c0,5.04-1.776,9.335-5.328,12.889c-3.553,3.552-7.849,5.327-12.889,5.327H-291.971z
	 M-263.171-73.931h-7.704c2.832-1.92,5.136-4.464,6.912-7.632h0.792V-73.931L-263.171-73.931z M-263.53-74.291v-6.912l0.359-0.36
	l0.36,0.36v6.912l-0.36,0.359L-263.53-74.291z"/>
<path d="M-349.931-18.891v-6.911l0.36-0.36l0.36,0.36v6.911l-0.36,0.36L-349.931-18.891z M-342.803-21.339
	c-1.824,1.872-4.08,2.809-6.768,2.809v-7.633c0.527,0,0.983-0.192,1.368-0.575c0.384-0.385,0.576-0.841,0.576-1.368v-23.041
	c0-2.688,0.911-4.942,2.735-6.768c1.872-1.872,4.151-2.809,6.84-2.809h5.761c2.688,0,4.943,0.937,6.768,2.809
	c1.872,1.825,2.809,4.08,2.809,6.768v3.816h-7.633v-3.816c0-0.526-0.192-0.982-0.575-1.368c-0.385-0.384-0.841-0.575-1.368-0.575
	h-5.761c-0.528,0-0.984,0.191-1.367,0.575c-0.385,0.386-0.576,0.841-0.576,1.368v23.041
	C-339.994-25.371-340.931-23.115-342.803-21.339z M-320.771-18.53h-19.439c2.207-2.063,3.527-4.608,3.96-7.633h15.479V-18.53z
	 M-321.13-18.891v-6.911l0.359-0.36l0.36,0.36v6.911l-0.36,0.36L-321.13-18.891z"/>
<path d="M-321.131-18.891v-6.911l0.36-0.36l0.36,0.36v6.911l-0.36,0.36L-321.131-18.891z M-309.251-18.53h-11.52v-7.633h11.52
	V-18.53z M-318.826-68.427c0-1.056,0.371-1.955,1.115-2.7c0.744-0.744,1.645-1.116,2.7-1.116c1.055,0,1.955,0.372,2.7,1.116
	c0.744,0.745,1.116,1.645,1.116,2.7s-0.372,1.957-1.116,2.699c-0.745,0.745-1.645,1.116-2.7,1.116c-1.055,0-1.956-0.371-2.7-1.116
	C-318.455-66.469-318.826-67.371-318.826-68.427z M-318.826-30.051v-30.673h7.632v30.673H-318.826z M-309.61-18.891v-6.911
	l0.359-0.36l0.36,0.36v6.911l-0.36,0.36L-309.61-18.891z"/>
<path d="M-309.611-18.891v-6.911l0.36-0.36l0.36,0.36v6.911l-0.36,0.36L-309.611-18.891z M-302.483-21.339
	c-1.824,1.872-4.08,2.809-6.768,2.809v-7.633c0.527,0,0.983-0.192,1.368-0.575c0.384-0.385,0.576-0.841,0.576-1.368v-23.041
	c0-2.688,0.911-4.942,2.735-6.768c1.872-1.872,4.151-2.809,6.84-2.809h5.761c2.688,0,4.943,0.937,6.768,2.809
	c1.872,1.825,2.809,4.08,2.809,6.768v21.097h-7.633v-21.097c0-0.526-0.192-0.982-0.575-1.368c-0.385-0.384-0.841-0.575-1.368-0.575
	h-5.761c-0.528,0-0.984,0.191-1.367,0.575c-0.385,0.386-0.576,0.841-0.576,1.368v23.041
	C-299.675-25.371-300.611-23.115-302.483-21.339z M-280.451-18.53h-19.439c2.207-2.063,3.527-4.608,3.96-7.633h15.479V-18.53z
	 M-280.811-18.891v-6.911l0.359-0.36l0.36,0.36v6.911l-0.36,0.36L-280.811-18.891z"/>
<path d="M-280.812-18.891v-6.911l0.36-0.36l0.36,0.36v6.911l-0.36,0.36L-280.812-18.891z M-263.64-22.022
	c0.695,1.319,1.572,2.483,2.629,3.492h-19.44v-7.633h15.48C-264.78-24.723-264.336-23.344-263.64-22.022z M-251.651-18.53
	c-2.688,0-4.968-0.937-6.84-2.809c-1.825-1.824-2.736-4.08-2.736-6.769V-41.57h-7.704c-0.528,0-0.984,0.192-1.367,0.575
	c-0.385,0.385-0.576,0.841-0.576,1.368c0,0.528,0.191,0.983,0.576,1.368c0.383,0.385,0.839,0.575,1.367,0.575h3.816v7.633h-3.816
	c-2.64,0-4.92-0.912-6.84-2.736c-1.824-1.919-2.735-4.199-2.735-6.84c0-2.688,0.911-4.943,2.735-6.769
	c1.872-1.872,4.151-2.808,6.84-2.808h7.704v-1.944c0-0.526-0.192-0.982-0.575-1.368c-0.385-0.384-0.841-0.575-1.368-0.575h-8.641
	h-3.815v-7.633h3.815h8.641c2.688,0,4.943,0.937,6.768,2.809c1.872,1.825,2.809,4.08,2.809,6.768v23.041
	c0,0.527,0.19,0.983,0.575,1.368c0.384,0.383,0.84,0.575,1.368,0.575L-251.651-18.53L-251.651-18.53z M-252.011-18.891v-6.911
	l0.359-0.36l0.36,0.36v6.911l-0.36,0.36L-252.011-18.891z"/>
<rect x="-836.775" y="223.381" fill="none" width="144" height="49.333"/>
<text transform="matrix(1 0 0 1 -836.7754 238.6809)" font-family="'NeoGothisADFStd-MediumOblique'" font-size="18">YEGRINA</text>
<rect x="-955.285" y="422.245" fill="none" width="144" height="49.333"/>
<text transform="matrix(1 0 0 1 -955.2852 437.5452)" fill="#FFFFFF" font-family="'NeoGothisADFStd-DemiBold'" font-size="18">YEGRINA</text>
<rect x="-848.642" y="570.739" fill="none" width="144" height="49.333"/>
<text transform="matrix(1 0 0 1 -848.6426 586.0383)" font-family="'NeoGothisADFStd-DemiBold'" font-size="18">YEGRINA</text>
<rect x="-497.352" y="448.85" fill="none" width="144" height="49.333"/>
<text transform="matrix(1 0 0 1 -497.3516 464.1497)" fill="#FFFFFF" font-family="'NeoGothisADFStd-DemiBold'" font-size="18">YEGRINA</text>
<g>
	<g>
		<path d="M-632.505,60.613c0,9.869,0,19.738,0,29.607c1-1,2-2,3-3c-8.651,0-17.302,0-25.953,0c-3.869,0-3.869,6,0,6
			c8.651,0,17.302,0,25.953,0c1.635,0,3-1.364,3-3c0-9.869,0-19.738,0-29.607C-626.505,56.744-632.505,56.744-632.505,60.613
			L-632.505,60.613z"/>
	</g>
</g>
<g>
	<g>
		<path d="M-804.655-68.257c0-9.869,0-19.738,0-29.607c-1,1-2,2-3,3c8.651,0,17.302,0,25.953,0c3.869,0,3.869-6,0-6
			c-8.651,0-17.302,0-25.953,0c-1.635,0-3,1.365-3,3c0,9.869,0,19.738,0,29.607C-810.655-64.388-804.655-64.388-804.655-68.257
			L-804.655-68.257z"/>
	</g>
</g>
<path d="M23.688,61.677l1.399-6.102c-1.747,1.51-3.542,2.704-5.383,3.583c-1.843,0.879-3.602,1.265-5.274,1.157
	c-1.458-0.094-2.859-0.515-4.203-1.265c-1.338-0.754-2.502-1.786-3.487-3.099c-0.985-1.304-1.738-2.872-2.264-4.698
	c-0.525-1.827-0.714-3.862-0.571-6.108c0.19-2.955,0.544-5.66,1.069-8.099c0.519-2.438,1.167-5.455,1.932-9.042
	c0.766-3.584,1.583-6.405,2.445-8.449c0.866-2.044,1.835-4.109,2.915-6.188c0.797-1.487,1.875-2.586,3.233-3.3
	c1.358-0.716,2.661-1.036,3.907-0.954c1.062,0.066,1.956,0.425,2.678,1.065c0.722,0.649,1.043,1.599,0.964,2.856
	c-0.027,0.378-0.091,0.782-0.191,1.217c-0.104,0.44-0.262,0.909-0.474,1.406c-0.636,1.528-1.208,3.365-1.717,5.497
	c-0.507,2.13-1.184,4.973-2.028,8.525c-0.848,3.555-1.519,6.373-2.013,8.458c-0.497,2.081-0.799,3.945-0.903,5.596
	c-0.057,0.86-0.056,1.694,0,2.509c0.053,0.818,0.195,1.55,0.432,2.2c0.233,0.654,0.564,1.19,0.996,1.618
	c0.429,0.427,0.996,0.658,1.694,0.702c1.125,0.074,2.178-0.407,3.161-1.446c0.982-1.034,1.858-2.304,2.626-3.803
	c0.77-1.5,1.41-3.057,1.926-4.672c0.516-1.616,0.869-2.973,1.061-4.06l4.876-18.842c0.285-1.111,0.775-2.098,1.476-2.978
	c0.665-0.842,1.43-1.557,2.293-2.135c0.864-0.573,1.745-0.986,2.648-1.236c0.902-0.246,1.751-0.346,2.543-0.297
	c0.945,0.062,1.722,0.342,2.331,0.839c0.611,0.505,0.884,1.25,0.822,2.235c-0.021,0.307-0.088,0.661-0.206,1.062
	c-0.202,0.898-0.471,2.102-0.803,3.609c-0.34,1.513-0.723,3.229-1.148,5.155c-0.428,1.925-1.029,4.625-1.797,8.097
	c-0.771,3.475-1.393,6.267-1.871,8.382c-1.093,5.001-2.227,10.369-3.398,16.123c0.96-0.521,2.003-1.169,3.127-1.953
	c1.124-0.777,2.383-1.844,3.782-3.188c1.399-1.341,2.974-3.038,4.723-5.091c1.751-2.058,3.733-4.635,5.945-7.733l1.464,11.493
	c-0.616,1.012-1.383,2.03-2.305,3.058c-0.986,1.089-2.029,2.142-3.133,3.157c-1.62,1.454-2.781,2.431-3.486,2.93
	c-0.224,0.156-1.397,1.059-3.517,2.712c-0.647,0.542-2.76,1.978-6.341,4.305c-0.874,0.562-1.511,1.639-1.922,3.231
	c-0.413,1.597-0.959,4.573-1.642,8.931c-0.254,1.243-0.426,2.198-0.513,2.873c-0.287,1.612-0.563,3.144-0.823,4.607
	c-0.26,1.461-0.665,3.121-1.208,4.978c-0.547,1.864-1.157,3.564-1.837,5.109c-0.678,1.546-1.537,3.072-2.579,4.576
	c-1.039,1.504-2.165,2.769-3.372,3.807c-1.211,1.03-2.641,1.834-4.295,2.412c-1.652,0.581-3.436,0.805-5.344,0.681
	c-1.552-0.098-2.972-0.383-4.267-0.859c-1.293-0.477-2.461-1.156-3.502-2.042c-1.041-0.885-1.867-2.052-2.473-3.505
	c-0.608-1.459-0.911-3.141-0.91-5.051c-0.013-3.617,1.112-7.364,3.376-11.239c1.268-2.173,2.159-3.677,2.67-4.511
	c0.515-0.837,1.306-2.04,2.385-3.61c1.075-1.533,2.187-2.911,3.333-4.135c2.301-2.546,4.197-4.592,5.683-6.133
	C19.89,65.061,21.652,63.422,23.688,61.677z M23.063,73.981c-2.244,1.563-4.521,4.147-6.831,7.753
	c-2.313,3.608-4.199,7.31-5.666,11.107c-1.218,3.201-0.819,4.866,1.188,4.994c0.73,0.048,1.391-0.014,1.983-0.182
	c0.591-0.166,1.145-0.497,1.666-0.992c0.519-0.498,0.981-1.045,1.387-1.651c0.406-0.605,0.851-1.469,1.333-2.579
	c0.486-1.116,0.922-2.213,1.312-3.301c0.389-1.081,0.887-2.525,1.491-4.331c0.337-0.971,0.61-2.053,0.82-3.256
	c0.208-1.204,0.462-2.647,0.752-4.333C22.794,75.527,22.983,74.448,23.063,73.981z"/>
<path d="M60.478,69.528c-2.299-0.147-4.282-0.735-5.948-1.76c-1.666-1.023-3.024-2.347-4.075-3.969
	c-1.051-1.619-1.798-3.466-2.244-5.534c-0.444-2.068-0.594-4.218-0.452-6.454c0.094-1.46,0.462-3.186,1.106-5.175
	c0.646-1.988,1.292-3.751,1.944-5.28c0.652-1.528,1.438-2.979,2.362-4.348c0.923-1.369,1.978-2.56,3.162-3.571
	c1.184-1.011,2.488-1.793,3.914-2.343c1.424-0.551,2.982-0.772,4.673-0.664c1.379,0.089,2.646,0.408,3.8,0.96
	c1.152,0.549,2.14,1.284,2.96,2.196c0.819,0.915,1.438,1.995,1.853,3.241c0.417,1.247,0.576,2.621,0.48,4.128
	c-0.104,1.602-0.719,3.365-1.845,5.293c-1.127,1.926-2.403,3.56-3.826,4.895c-1.424,1.337-3.091,2.501-5.001,3.496
	c-1.909,0.995-3.959,1.732-6.145,2.216c0.327,0.722,0.653,1.328,0.983,1.816c0.327,0.487,0.669,0.873,1.025,1.154
	c0.353,0.283,0.731,0.49,1.133,0.619c0.401,0.13,0.835,0.208,1.307,0.239c1.477,0.094,3.054-0.115,4.732-0.632
	c1.676-0.516,3.324-1.189,4.933-2.02c1.612-0.833,3.14-1.753,4.589-2.761c1.45-1.012,2.687-1.979,3.71-2.898l4.435,5.502
	c-2.33,2.338-4.771,4.384-7.331,6.13c-1.114,0.75-2.301,1.48-3.572,2.193c-1.27,0.712-2.596,1.332-3.977,1.858
	c-1.383,0.526-2.804,0.928-4.268,1.201C63.43,69.532,61.958,69.622,60.478,69.528z M56.754,50.324
	c0.891,0.054,1.877-0.121,2.958-0.532c1.083-0.411,2.097-0.963,3.047-1.654c0.95-0.692,1.899-1.645,2.846-2.856
	c0.947-1.211,1.446-2.23,1.5-3.06c0.075-1.162-0.068-2.132-0.43-2.907c-0.359-0.775-0.834-1.183-1.428-1.221
	c-1.063-0.067-1.984,0.081-2.765,0.447c-0.782,0.363-1.445,0.862-1.993,1.488c-0.55,0.627-1.005,1.35-1.368,2.171
	c-0.361,0.819-0.788,1.836-1.275,3.054c-0.488,1.214-0.783,2.222-0.881,3.017C56.862,49.07,56.792,49.753,56.754,50.324z"/>
<path d="M78.451,53.13c0.061-0.953,0.182-2.059,0.364-3.319c0.182-1.261,0.404-2.59,0.665-3.987
	c0.263-1.397,0.556-2.815,0.881-4.262c0.324-1.447,0.724-2.987,1.19-4.622c0.469-1.632,0.871-2.994,1.203-4.081
	c0.333-1.087,0.654-1.978,0.96-2.678c0.193-0.464,0.378-0.833,0.558-1.104c0.18-0.272,0.381-0.482,0.602-0.631
	c0.224-0.147,0.49-0.239,0.81-0.274c0.314-0.035,0.705-0.037,1.168-0.009c0.524,0.037,0.931,0.087,1.22,0.162
	c0.287,0.075,0.498,0.215,0.626,0.431c0.13,0.214,0.195,0.517,0.199,0.911c0.005,0.391-0.012,0.921-0.056,1.593
	c-0.051,0.801-0.173,1.934-0.371,3.4c-0.193,1.466-0.308,2.752-0.338,3.858l0.332,0.023c0.46-0.842,1.038-1.948,1.732-3.314
	c0.694-1.37,1.406-2.497,2.132-3.386c0.722-0.89,1.529-1.625,2.418-2.209c0.888-0.583,1.886-0.841,2.995-0.77
	c0.384,0.025,0.752,0.118,1.106,0.283c0.354,0.165,0.658,0.386,0.914,0.662c0.256,0.275,0.45,0.609,0.59,1.001
	c0.138,0.387,0.19,0.819,0.158,1.297c-0.022,0.366-0.105,0.877-0.25,1.532c-0.143,0.654-0.36,1.502-0.648,2.551
	c-0.291,1.046-0.508,1.907-0.652,2.585c-0.145,0.675-0.231,1.237-0.261,1.694c-0.05,0.78-0.021,1.433,0.088,1.962
	c0.108,0.528,0.265,0.958,0.479,1.286c0.212,0.328,0.461,0.568,0.743,0.717c0.285,0.148,0.589,0.231,0.912,0.254
	c0.907,0.055,1.858-0.1,2.855-0.473c0.996-0.369,1.912-0.8,2.756-1.288c0.987-0.57,1.96-1.223,2.918-1.966l-0.94,7.569
	c-0.549,0.336-1.169,0.71-1.862,1.122c-0.695,0.411-1.436,0.796-2.215,1.145c-0.783,0.353-1.589,0.637-2.426,0.856
	c-0.832,0.216-1.674,0.3-2.521,0.246c-1.513-0.098-2.714-0.504-3.598-1.227c-0.887-0.72-1.565-1.633-2.042-2.738
	c-0.476-1.108-0.805-2.335-0.979-3.684c-0.177-1.348-0.302-2.708-0.374-4.082l-0.484-0.032l-6.454,15.859
	c-0.335,0.826-0.646,1.508-0.935,2.043c-0.287,0.535-0.574,0.969-0.859,1.299c-0.284,0.327-0.58,0.551-0.892,0.676
	c-0.313,0.121-0.649,0.168-1.013,0.146c-0.828-0.052-1.48-0.285-1.961-0.694c-0.48-0.413-0.835-0.946-1.066-1.602
	c-0.232-0.655-0.366-1.392-0.406-2.209C78.388,54.839,78.396,53.997,78.451,53.13z"/>
<path d="M122.764,44.189c-0.69,0.598-1.545,1.231-2.557,1.896c-1.014,0.667-2.1,1.269-3.259,1.809
	c-1.161,0.539-2.337,0.976-3.528,1.31c-1.192,0.333-2.312,0.466-3.359,0.397c-0.938-0.062-1.721-0.252-2.343-0.575
	c-0.624-0.322-1.118-0.747-1.483-1.278c-0.366-0.529-0.609-1.165-0.734-1.901c-0.126-0.739-0.163-1.544-0.106-2.418
	c0.079-1.22,0.296-2.641,0.654-4.251c0.738-3.34,1.193-5.212,1.37-5.618c0.297-0.812,0.907-2.615,1.827-5.411
	c0.833-2.273,1.355-3.752,1.561-4.441c0.12-0.484,0.397-0.911,0.832-1.277c0.396-0.331,0.836-0.593,1.32-0.789
	c0.485-0.194,0.984-0.328,1.495-0.406c0.516-0.076,0.974-0.1,1.383-0.073c0.746,0.052,1.241,0.232,1.488,0.55
	c0.247,0.319,0.356,0.727,0.322,1.233c-0.025,0.427-0.156,1.024-0.394,1.794c-0.235,0.764-0.504,1.641-0.806,2.625
	c-0.3,0.978-0.734,2.238-1.301,3.775c-0.564,1.537-0.969,2.853-1.21,3.946c-0.242,1.096-0.526,2.177-0.857,3.253
	c-0.33,1.075-0.523,2.058-0.579,2.947c-0.057,0.876-0.011,1.575,0.137,2.1c0.147,0.523,0.501,0.806,1.063,0.841
	c0.65,0.041,1.389-0.156,2.214-0.59c0.829-0.433,1.669-0.969,2.528-1.605c0.855-0.637,1.697-1.297,2.521-1.987
	c0.826-0.686,1.551-1.273,2.18-1.757L122.764,44.189z M112.364,13.089c0.025-0.381,0.134-0.81,0.329-1.279
	c0.198-0.471,0.494-0.908,0.893-1.308c0.399-0.397,0.919-0.725,1.556-0.974c0.638-0.253,1.417-0.349,2.342-0.29
	c0.578,0.037,1.118,0.14,1.622,0.305c0.505,0.166,0.938,0.396,1.299,0.695c0.364,0.3,0.64,0.682,0.833,1.142
	c0.195,0.462,0.275,1.002,0.233,1.615c-0.034,0.566-0.161,1.109-0.376,1.627c-0.218,0.521-0.534,0.977-0.958,1.366
	c-0.422,0.389-0.944,0.695-1.563,0.916c-0.62,0.217-1.35,0.299-2.192,0.244c-1.453-0.092-2.503-0.505-3.152-1.238
	C112.581,15.175,112.291,14.236,112.364,13.089z"/>
<path d="M120.69,39.717c0.074-1.151,0.225-2.479,0.451-3.978c0.226-1.5,0.496-3.152,0.806-4.941c0.313-1.795,0.634-3.406,0.971-4.84
	c0.336-1.432,0.65-2.654,0.944-3.671c0.229-0.791,0.618-1.441,1.166-1.947c0.546-0.508,1.258-0.736,2.136-0.678
	c0.879,0.055,1.471,0.381,1.773,0.981c0.305,0.596,0.427,1.374,0.365,2.335c-0.017,0.264-0.065,0.613-0.141,1.055
	c-0.077,0.442-0.17,0.929-0.276,1.453c-0.108,0.528-0.221,1.073-0.338,1.637c-0.119,0.562-0.237,1.202-0.355,1.921
	c-0.118,0.72-0.215,1.255-0.286,1.61c-0.072,0.355-0.111,0.593-0.119,0.715l0.486,0.033c0.111-0.185,0.288-0.487,0.525-0.9
	c0.236-0.414,0.521-1.014,0.849-1.797c0.326-0.786,0.67-1.479,1.026-2.077c0.355-0.598,0.691-1.174,1.003-1.723
	c0.313-0.55,0.598-1.036,0.854-1.455c0.255-0.423,0.446-0.737,0.573-0.938c0.581-0.908,1.213-1.516,1.904-1.822
	c0.688-0.306,1.438-0.435,2.252-0.382c0.811,0.051,1.436,0.459,1.867,1.224c0.433,0.762,0.607,1.79,0.523,3.081
	c-0.01,0.192-0.067,0.514-0.171,0.96c-0.103,0.45-0.23,0.983-0.386,1.607c-0.152,0.617-0.331,1.423-0.53,2.405
	c-0.201,0.988-0.385,1.868-0.55,2.647c-0.165,0.778-0.308,1.548-0.431,2.311c-0.121,0.762-0.203,1.47-0.245,2.114
	c-0.071,1.083,0,1.979,0.209,2.691c0.206,0.715,0.577,1.088,1.113,1.125c0.194,0.014,0.478-0.049,0.845-0.183
	c0.55-0.175,0.904-0.338,1.061-0.485c0.753-0.547,1.145-0.811,1.175-0.791c0.048,0.021,0.614-0.293,1.701-0.942
	c1.356-0.807-0.567-2.603,1.321-3.778l3.144,6.667l-1.282,0.916c-0.104,0.081-0.897,0.486-2.378,1.214
	c-2.141,1.054-3.478,1.685-4.015,1.896c-1.307,0.532-2.116,0.83-2.432,0.897c-0.83,0.227-1.691,0.311-2.586,0.255
	c-0.893-0.059-1.6-0.802-2.123-2.225c-0.52-1.426-0.693-3.478-0.524-6.144c0.068-1.047,0.206-2.173,0.416-3.376
	c0.205-1.204,0.448-2.499,0.735-3.882l-0.39-0.025l-7.259,13.202c-0.39,0.709-0.784,1.174-1.189,1.396
	c-0.425,0.233-0.904,0.336-1.439,0.299c-0.666-0.041-1.194-0.228-1.58-0.56c-0.388-0.332-0.672-0.762-0.859-1.289
	c-0.188-0.528-0.295-1.122-0.325-1.779C120.638,41.094,120.646,40.414,120.69,39.717z"/>
<path d="M168.012,34.546c-0.344,0.455-5.229,5.07-5.795,5.672c-0.567,0.606-1.196,1.176-1.888,1.709
	c-0.692,0.538-1.428,0.984-2.204,1.333c-0.775,0.352-1.538,0.504-2.291,0.456c-0.908-0.058-1.644-0.413-2.209-1.07
	c-0.565-0.656-1.031-1.584-1.397-2.784c-0.355,0.38-0.788,0.767-1.298,1.158c-0.507,0.39-1.06,0.737-1.652,1.041
	c-0.592,0.305-1.207,0.548-1.837,0.723c-0.637,0.179-1.261,0.248-1.881,0.208c-0.655-0.042-1.283-0.227-1.888-0.556
	c-0.602-0.328-1.125-0.775-1.567-1.346c-0.444-0.571-0.785-1.252-1.021-2.047c-0.236-0.794-0.322-1.68-0.261-2.655
	c0.067-1.094,0.286-2.21,0.647-3.345c0.361-1.136,0.888-2.354,1.58-3.662c0.688-1.303,1.413-2.425,2.168-3.357
	c0.758-0.932,1.571-1.74,2.441-2.419c0.869-0.674,1.776-1.203,2.717-1.575c0.94-0.372,1.884-0.527,2.834-0.468
	c0.315,0.022,0.558,0.103,0.727,0.249c0.173,0.145,0.31,0.305,0.414,0.483c0.106,0.177,0.21,0.351,0.31,0.522
	c0.1,0.169,0.228,0.296,0.389,0.38c0.16,0.085,0.324,0.146,0.495,0.177c0.169,0.032,0.343,0.058,0.523,0.065
	c0.15,0.012,0.304,0.019,0.465,0.02c0.155,0.004,0.311,0.01,0.464,0.016c0.205,0.017,0.396,0.05,0.57,0.105
	c0.178,0.056,0.327,0.164,0.455,0.32c0.129,0.157,0.221,0.371,0.277,0.644c0.06,0.27,0.073,0.633,0.046,1.094
	c-0.047,0.702-0.166,1.474-0.358,2.32c-0.19,0.844-0.402,1.71-0.635,2.594c-0.234,0.886-0.499,1.892-0.799,3.025
	s-0.471,2.092-0.524,2.876c-0.042,0.673-0.019,1.202,0.074,1.588c0.09,0.384,0.327,0.592,0.71,0.615
	c0.286,0.019,0.592-0.037,0.914-0.17c0.324-0.131,0.656-0.311,0.99-0.539c0.34-0.224,0.678-0.487,1.02-0.778
	c0.338-0.293,0.664-0.596,0.973-0.913c0.719-0.739,4.736-5.942,5.482-6.886L168.012,34.546z M146.124,35.787
	c-0.025,0.376-0.023,0.744,0.001,1.103c0.025,0.357,0.09,0.682,0.195,0.968c0.107,0.288,0.255,0.529,0.449,0.713
	c0.195,0.188,0.448,0.289,0.763,0.313c0.507,0.029,0.979-0.176,1.42-0.624c0.439-0.444,0.832-0.989,1.176-1.633
	c0.344-0.646,0.63-1.315,0.858-2.013c0.23-0.694,0.388-1.277,0.474-1.75l1.985-7.047c-0.56-0.036-1.116,0.078-1.667,0.343
	c-0.554,0.265-1.079,0.635-1.582,1.111c-0.507,0.479-0.976,1.036-1.413,1.661c-0.438,0.629-0.877,1.412-1.321,2.346
	c-0.445,0.933-0.767,1.757-0.972,2.474C146.285,34.468,146.164,35.145,146.124,35.787z"/>
</svg>
